<svg height="511pt" viewBox="-8 1 511 511.99987" width="511pt" xmlns="http://www.w3.org/2000/svg"><path d="m179.707031 358.398438h119.46875v145.070312h-119.46875zm0 0" fill="#69b0bb"/><path d="m179.707031 358.398438h119.46875v59.734374h-119.46875zm0 0" fill="#d9d9d9"/><path d="m294.351562 117.144531 108.609376-108.609375 84.476562 84.472656-108.613281 108.613282zm0 0" fill="#a45e14"/><path d="m329.894531 286.804688 36.90625-36.914063v-60.339844l-60.339843-60.339843-30.503907 3.414062c-15.421875 1.695312-29.804687 8.59375-40.78125 19.558594l-49.445312 49.433594 96.554687 96.546874 6.035156-6.035156 2.132813 1.066406c13.152344 6.589844 29.046875 4.015626 39.441406-6.390624zm0 0" fill="#eeb58e"/><path d="m294.351562 117.144531 42.234376-42.238281 84.476562 84.476562-42.238281 42.234376zm0 0" fill="#d9d9d9"/><path d="m9.042969 93.007812 84.476562-84.476562 108.609375 108.613281-84.472656 84.476563zm0 0" fill="#a8a8a8"/><path d="m166.625 286.804688-36.90625-36.914063v-60.339844l60.339844-60.339843 30.507812 3.414062c15.40625 1.714844 29.769532 8.621094 40.730469 19.582031l49.441406 49.433594-96.539062 96.523437-6.03125-6.035156-2.136719 1.066406c-13.140625 6.574219-29.015625 4-39.40625-6.390624zm0 0" fill="#f6bb92"/><path d="m75.414062 159.382812 84.476563-84.476562 42.238281 42.238281-84.476562 84.472657zm0 0" fill="#d9d9d9"/><path d="m299.175781 179.199219c-9.425781 0-17.066406 7.640625-17.066406 17.066406 0-9.425781-7.640625-17.066406-17.066406-17.066406s-17.066407 7.640625-17.066407 17.066406c0-9.425781-7.644531-17.066406-17.070312-17.066406-9.421875 0-17.066406 7.640625-17.066406 17.066406 0-9.425781-7.640625-17.066406-17.066406-17.066406-9.425782 0-17.066407 7.640625-17.066407 17.066406v34.132813l-2.261719.75c-13.9375 4.648437-23.339843 17.691406-23.335937 32.386718v52.199219l42.664063 42.664063h85.335937l19.175781-23.96875c9.6875-12.109376 14.960938-27.160157 14.957032-42.667969v-95.496094c0-9.425781-7.640626-17.066406-17.066407-17.066406zm0 0" fill="#fdc9a6"/><path d="m409 2.5c-3.332031-3.332031-8.734375-3.332031-12.066406 0l-108.613282 108.609375c-3.195312 3.140625-3.347656 8.242187-.339843 11.5625l-13.007813 1.445313c-9.328125 1.058593-18.378906 3.832031-26.699218 8.183593-8.347657-4.34375-17.421876-7.113281-26.769532-8.175781l-13.015625-1.453125c2.953125-3.339844 2.804688-8.394531-.332031-11.5625l-42.230469-42.238281-66.378906-66.371094c-3.386719-3.203125-8.683594-3.203125-12.066406 0l-84.480469 84.480469c-3.332031 3.332031-3.332031 8.730469 0 12.066406l108.621094 108.601563c2.492187 2.566406 6.347656 3.253906 9.574218 1.707031v40.566406c0 2.265625.898438 4.433594 2.5 6.035156l21.878907 21.851563v37.925781c0 2.261719.898437 4.429687 2.5 6.03125l28.699219 28.699219c-3.351563 1.203125-5.585938 4.375-5.597657 7.933594v145.066406c0 4.714844 3.820313 8.535156 8.53125 8.535156h119.46875c4.710938 0 8.53125-3.820312 8.53125-8.535156v-145.066406c-.023437-4.453126-3.488281-8.128907-7.933593-8.414063l8.171874-10.238281c8.890626-11.15625 14.503907-24.5625 16.214844-38.726563 4.351563-2.050781 8.320313-4.828125 11.742188-8.207031l36.90625-36.90625c1.601562-1.601562 2.5-3.769531 2.5-6.035156v-40.550782c.113281.050782.1875.148438.300781.1875 3.183594 1.308594 6.839844.574219 9.273437-1.859374l108.597657-108.613282c3.332031-3.332031 3.332031-8.734375 0-12.066406zm-315.480469 18.097656 54.316407 54.304688-72.414063 72.414062-54.316406-54.304687zm-6.03125 138.785156 72.414063-72.402343 30.164062 30.164062-72.40625 72.40625zm50.78125 33.699219 54.929688-54.9375 26.453125 2.945313c13.476562 1.503906 26.039062 7.542968 35.636718 17.125l12.730469 12.730468c-.984375-.152343-1.980469-.25-2.980469-.28125-6.300781-.003906-12.378906 2.324219-17.066406 6.539063-9.707031-8.714844-24.421875-8.714844-34.132812 0-10.539063-9.425781-26.722656-8.523437-36.148438 2.011719-4.191406 4.691406-6.511718 10.761718-6.515625 17.050781v28.160156c-12.609375 5.519531-21.765625 16.800781-24.570312 30.277344l-8.34375-8.347656zm152.371094 216.515625h-102.398437v-42.664062h102.398437zm-102.398437 85.335938v-68.265625h102.398437v68.265625zm119.464843-203.144532c-.015625 13.558594-4.632812 26.714844-13.089843 37.316407l-16.605469 20.761719h-77.703125l-37.667969-37.667969v-48.640625c0-11.019532 7.054687-20.800782 17.511719-24.285156l2.25-.75c3.496094-1.164063 5.851562-4.441407 5.839844-8.125v-34.132813c0-4.710937 3.820312-8.535156 8.53125-8.535156 4.714843 0 8.535156 3.824219 8.535156 8.535156s3.820312 8.535156 8.53125 8.535156c4.714844 0 8.535156-3.824219 8.535156-8.535156s3.820312-8.535156 8.53125-8.535156c4.714844 0 8.535156 3.824219 8.535156 8.535156s3.820313 8.535156 8.53125 8.535156c4.714844 0 8.535156-3.824219 8.535156-8.535156s3.820313-8.535156 8.53125-8.535156c4.714844 0 8.535157 3.824219 8.535157 8.535156s3.820312 8.535156 8.53125 8.535156c4.714843 0 8.535156-3.824219 8.535156-8.535156s3.820313-8.535156 8.53125-8.535156c4.714844 0 8.535156 3.824219 8.535156 8.535156zm50.519531-45.433593-33.453124 33.460937v-83.550781c0-14.136719-11.460938-25.601563-25.597657-25.601563-2.167969.03125-4.320312.335938-6.410156.914063l-25.429687-25.4375c-.851563-.855469-1.707032-1.605469-2.621094-2.398437 3.945312-1.304688 8.015625-2.199219 12.144531-2.660157l26.453125-2.9375 54.9375 54.9375zm-15.601562-93.011719-30.164062-30.175781-6.015626-6.023438 30.171876-30.175781 72.40625 72.414062-30.164063 30.167969zm78.441406-6.035156-72.398437-72.40625 54.304687-54.304688 72.398438 72.414063zm0 0"/></svg>