<svg height="496pt" viewBox="-32 0 496 496" width="496pt" xmlns="http://www.w3.org/2000/svg"><path d="m392 120h-24v-96c0-4.425781-3.585938-8-8-8h-24v-8c0-4.425781-3.585938-8-8-8h-96c-2.121094 0-4.160156.839844-5.65625 2.34375l-10.34375 10.34375-10.34375-10.34375c-1.496094-1.503906-3.535156-2.34375-5.65625-2.34375h-96c-4.414062 0-8 3.574219-8 8v8h-24c-4.414062 0-8 3.574219-8 8v96h-24c-22.054688 0-40 17.945312-40 40v208c0 22.054688 17.945312 40 40 40h144v24h-24c-30.878906 0-56 25.128906-56 56 0 4.425781 3.585938 8 8 8h208c4.414062 0 8-3.574219 8-8 0-30.871094-25.121094-56-56-56h-24v-24h144c22.054688 0 40-17.945312 40-40v-208c0-22.054688-17.945312-40-40-40zm-24 112v-64h16v192h-160v-16h24c30.878906 0 56-25.128906 56-56 0-4.425781-3.585938-8-8-8h-32c-15.664062 0-29.824219 6.480469-40 16.886719v-56.886719h136c4.414062 0 8-3.574219 8-8zm-143.191406 96c3.710937-18.230469 19.878906-32 39.191406-32h23.191406c-3.710937 18.230469-19.878906 32-39.191406 32zm-112.808594-152h84.6875l13.65625 13.65625c1.558594 1.558594 3.609375 2.34375 5.65625 2.34375s4.097656-.785156 5.65625-2.34375l13.65625-13.65625h84.6875v16h-208zm123.3125-160h84.6875v144h-88c-2.121094 0-4.160156.839844-5.65625 2.34375l-2.34375 2.34375v-137.375zm-123.3125 0h84.6875l11.3125 11.3125v137.375l-2.34375-2.34375c-1.496094-1.503906-3.535156-2.34375-5.65625-2.34375h-88zm-32 16h16v168c0 4.425781 3.585938 8 8 8h224c4.414062 0 8-3.574219 8-8v-168h16v192h-272zm128 208v56.886719c-10.175781-10.40625-24.335938-16.886719-40-16.886719h-32c-4.414062 0-8 3.574219-8 8 0 30.871094 25.121094 56 56 56h24v16h-160v-192h16v64c0 4.425781 3.585938 8 8 8zm-.808594 88h-23.191406c-19.320312 0-35.480469-13.769531-39.191406-32h23.191406c19.320312 0 35.480469 13.769531 39.191406 32zm104 152h-190.382812c3.710937-18.230469 19.878906-32 39.191406-32h112c19.320312 0 35.480469 13.769531 39.191406 32zm-79.191406-48h-32v-24h32zm184-64c0 13.230469-10.769531 24-24 24h-352c-13.230469 0-24-10.769531-24-24v-208c0-13.230469 10.769531-24 24-24h24v16h-24c-4.414062 0-8 3.574219-8 8v208c0 4.425781 3.585938 8 8 8h352c4.414062 0 8-3.574219 8-8v-208c0-4.425781-3.585938-8-8-8h-24v-16h24c13.230469 0 24 10.769531 24 24zm0 0"/><path d="m128 32h64v16h-64zm0 0"/><path d="m128 64h64v16h-64zm0 0"/><path d="m128 96h64v16h-64zm0 0"/><path d="m128 128h64v16h-64zm0 0"/><path d="m240 32h64v16h-64zm0 0"/><path d="m240 64h64v16h-64zm0 0"/><path d="m240 96h64v16h-64zm0 0"/><path d="m240 128h64v16h-64zm0 0"/></svg>