<svg height="495pt" viewBox="-71 0 495 495.738" width="495pt" xmlns="http://www.w3.org/2000/svg"><path d="m208.367188 439.738281v-296l16-56-48-80-48 80 16 56v296l32 48zm0 0" fill="#666"/><path d="m128.367188 87.738281 16 56v296l20 30 20-30v-296l16-56-36-60zm0 0" fill="#898989"/><path d="m144.367188 175.738281h32v232h-32zm0 0" fill="#e8c14c"/><path d="m176.367188 175.738281h32v232h-32zm0 0" fill="#db9d3d"/><path d="m144.367188 407.738281h64v32h-64zm0 0" fill="#39808c"/><path d="m144.367188 423.738281h64v16h-64zm0 0" fill="#3e8a9d"/><path d="m144.367188 143.738281h64v32h-64zm0 0" fill="#39808c"/><path d="m144.367188 159.738281h64v16h-64zm0 0" fill="#3e8a9d"/><path d="m192.367188 95.738281c0 8.835938-7.160157 16-16 16-8.835938 0-16-7.164062-16-16 0-8.835937 7.164062-16 16-16 8.839843 0 16 7.164063 16 16zm0 0" fill="#fff"/><path d="m320.367188 327.738281c0 17.671875-14.324219 32-32 32-17.671876 0-32-14.328125-32-32s14.328124-32 32-32c17.675781 0 32 14.328125 32 32zm0 0" fill="#90b244"/><path d="m96.367188 247.738281c0 17.671875-14.324219 32-32 32-17.671876 0-32-14.328125-32-32s14.328124-32 32-32c17.675781 0 32 14.328125 32 32zm0 0" fill="#90b244"/><path d="m304.367188 327.738281c0-17.050781-10.742188-30.871093-24-30.871093-13.253907 0-24 13.820312-24 30.871093s10.746093 30.871094 24 30.871094c13.257812 0 24-13.820313 24-30.871094zm0 0" fill="#a5bf5b"/><path d="m80.367188 247.738281c0-17.050781-10.742188-30.871093-24-30.871093-13.253907 0-24 13.820312-24 30.871093s10.746093 30.871094 24 30.871094c13.257812 0 24-13.820313 24-30.871094zm0 0" fill="#a5bf5b"/><path d="m120.367188 135.738281h112v16h-112zm0 0"/><path d="m176.367188 495.738281c-2.671876 0-5.167969-1.335937-6.652344-3.558593l-32-48c-.875-1.3125-1.347656-2.867188-1.347656-4.441407v-294.878906l-15.6875-54.921875c-.605469-2.128906-.3125-4.414062.832031-6.320312l48-80c2.890625-4.824219 10.832031-4.824219 13.722656 0l48 80c1.144531 1.898437 1.4375 4.183593.832031 6.320312l-15.699218 54.921875v294.878906c0 1.574219-.46875 3.128907-1.34375 4.441407l-32 48c-1.488282 2.222656-3.984376 3.558593-6.65625 3.558593zm-24-58.425781 24 36 24-36v-293.574219c0-.746093.105468-1.488281.3125-2.199219l15.050781-52.664062-39.363281-65.585938-39.351563 65.59375 15.050781 52.664063c.199219.703125.300782 1.445313.300782 2.191406zm0 0"/><path d="m176.367188 119.738281c-13.230469 0-24-10.769531-24-24s10.769531-24 24-24c13.234374 0 24 10.769531 24 24s-10.765626 24-24 24zm0-32c-4.40625 0-8 3.589844-8 8 0 4.40625 3.59375 8 8 8 4.410156 0 8-3.59375 8-8 0-4.410156-3.589844-8-8-8zm0 0"/><path d="m168.367188 15.738281h16v64h-16zm0 0"/><path d="m144.367188 431.738281h64v16h-64zm0 0"/><path d="m168.367188 175.738281h16v232h-16zm0 0"/><path d="m144.367188 167.738281h64v16h-64zm0 0"/><path d="m144.367188 399.738281h64v16h-64zm0 0"/><path d="m96.527344 246.585938-2.902344-15.734376c15.726562-2.90625 32.632812-4.953124 50.238281-6.082031l1.027344 15.96875c-16.984375 1.085938-33.257813 3.054688-48.363281 5.847657zm0 0"/><path d="m176.367188 351.738281c-85.316407 0-176-22.433593-176-64 0-9.566406 5.195312-23.71875 29.9375-36.832031l7.496093 14.136719c-13.824219 7.320312-21.433593 15.382812-21.433593 22.695312 0 22.664063 68.425781 48 160 48 27.984374 0 55.59375-2.367187 79.84375-6.847656l2.902343 15.734375c-25.191406 4.648438-53.808593 7.113281-82.746093 7.113281zm0 0"/><path d="m322.433594 324.570312-7.496094-14.136718c13.824219-7.320313 21.429688-15.382813 21.429688-22.695313 0-18.632812-49.132813-41.894531-128.511719-47l1.027343-15.96875c71.421876 4.59375 143.484376 25.839844 143.484376 62.96875 0 9.566407-5.191407 23.71875-29.933594 36.832031zm0 0"/><path d="m288.367188 367.738281c-22.054688 0-40-17.945312-40-40 0-22.054687 17.945312-40 40-40 22.058593 0 40 17.945313 40 40 0 22.054688-17.941407 40-40 40zm0-64c-13.230469 0-24 10.769531-24 24s10.769531 24 24 24c13.234374 0 24-10.769531 24-24s-10.765626-24-24-24zm0 0"/><path d="m64.367188 287.738281c-22.054688 0-40-17.945312-40-40 0-22.054687 17.945312-40 40-40 22.058593 0 40 17.945313 40 40 0 22.054688-17.941407 40-40 40zm0-64c-13.230469 0-24 10.769531-24 24s10.769531 24 24 24c13.234374 0 24-10.769531 24-24s-10.765626-24-24-24zm0 0"/></svg>