<svg height="496pt" viewBox="0 0 496 496" width="496pt" xmlns="http://www.w3.org/2000/svg"><path d="m280 199.738281v-56l16-56-48-80-48 80 16 56v56" fill="#bc8f6f"/><path d="m272 87.738281-36-60-36 60 16 56v56h40v-56zm0 0" fill="#cb9e78"/><path d="m248 7.738281-48 80 16 56h32" fill="#f8cf6a"/><path d="m248 143.738281h32l16-56-48-80" fill="#eebc5a"/><path d="m264 95.738281c0 8.835938-7.164062 16-16 16s-16-7.164062-16-16c0-8.835937 7.164062-16 16-16s16 7.164063 16 16zm0 0" fill="#fff"/><path d="m120 199.738281v-96l24-48 24 48v96" fill="#599072"/><path d="m136 71.738281-16 32v96h32v-96zm0 0" fill="#70b48f"/><path d="m120 103.738281 24-48 24 48" fill="#ca5057"/><path d="m360 487.738281h-224c-17.671875 0-32-14.328125-32-32v-256h288v256c0 17.671875-14.328125 32-32 32zm0 0" fill="#bc8f6f"/><path d="m136 471.738281h192c17.671875 0 32-14.328125 32-32v-240h-256v240c0 17.671875 14.328125 32 32 32zm0 0" fill="#cb9e78"/><path d="m136 199.738281v48c0 8.839844 7.160156 16 16 16s16-7.160156 16-16c0-8.839843 7.160156-16 16-16s16 7.160157 16 16v48c0 8.839844 7.160156 16 16 16s16-7.160156 16-16v-32c0-8.839843 7.160156-16 16-16s16 7.160157 16 16v64c0 8.839844 7.160156 16 16 16s16-7.160156 16-16v-128" fill="#ca5057"/><path d="m144 261.523438c4.761719-2.769532 8-7.875 8-13.785157 0-8.839843 7.160156-16 16-16 2.929688 0 5.640625.847657 8 2.214844 2.359375-1.367187 5.070312-2.214844 8-2.214844 8.839844 0 16 7.160157 16 16v48c0 5.902344 3.238281 11.007813 8 13.785157 4.761719-2.769532 8-7.875 8-13.785157v-32c0-8.839843 7.160156-16 16-16 2.929688 0 5.640625.847657 8 2.214844 2.359375-1.367187 5.070312-2.214844 8-2.214844 8.839844 0 16 7.160157 16 16v64c0 5.902344 3.238281 11.007813 8 13.785157 4.761719-2.769532 8-7.875 8-13.785157v-128h-144v48c0 5.902344 3.238281 11.007813 8 13.785157zm0 0" fill="#dc6068"/><path d="m104 263.738281h-48c-8.839844 0-16 7.160157-16 16v96c0 8.839844 7.160156 16 16 16h48v32h-56c-22.089844 0-40-17.914062-40-40v-112c0-22.089843 17.910156-40 40-40h56zm0 0" fill="#bab8b9"/><path d="m72 391.738281h-16c-8.839844 0-16-7.160156-16-16v-96c0-8.839843 7.160156-16 16-16h48v-32h-40c-22.089844 0-40 17.910157-40 40v112c0 22.085938 17.910156 40 40 40h40v-32zm0 0" fill="#d9d7d8"/><path d="m392 263.738281h48c8.839844 0 16 7.160157 16 16v96c0 8.839844-7.160156 16-16 16h-48v32h56c22.089844 0 40-17.914062 40-40v-112c0-22.089843-17.910156-40-40-40h-56zm0 0" fill="#bab8b9"/><path d="m424 391.738281h16c8.839844 0 16-7.160156 16-16v-96c0-8.839843-7.160156-16-16-16h-48v-32h40c22.089844 0 40 17.910157 40 40v112c0 22.085938-17.910156 40-40 40h-40v-32zm0 0" fill="#d9d7d8"/><path d="m360 495.738281h-224c-22.054688 0-40-17.945312-40-40v-256c0-4.417969 3.574219-8 8-8h288c4.425781 0 8 3.582031 8 8v256c0 22.054688-17.945312 40-40 40zm-248-288v248c0 13.230469 10.769531 24 24 24h224c13.230469 0 24-10.769531 24-24v-248zm0 0"/><path d="m104 431.738281h-56c-26.472656 0-48-21.527343-48-48v-112c0-26.472656 21.527344-48 48-48h56v16h-56c-17.648438 0-32 14.351563-32 32v112c0 17.648438 14.351562 32 32 32h56zm0 0"/><path d="m104 399.738281h-48c-13.230469 0-24-10.769531-24-24v-96c0-13.230469 10.769531-24 24-24h48v16h-48c-4.414062 0-8 3.589844-8 8v96c0 4.40625 3.585938 8 8 8h48zm0 0"/><path d="m448 431.738281h-56v-16h56c17.648438 0 32-14.351562 32-32v-112c0-17.648437-14.351562-32-32-32h-56v-16h56c26.472656 0 48 21.527344 48 48v112c0 26.472657-21.527344 48-48 48zm0 0"/><path d="m440 399.738281h-48v-16h48c4.414062 0 8-3.59375 8-8v-96c0-4.410156-3.585938-8-8-8h-48v-16h48c13.230469 0 24 10.769531 24 24v96c0 13.230469-10.769531 24-24 24zm0 0"/><path d="m280 351.738281c-13.230469 0-24-10.769531-24-24v-64c0-4.410156-3.585938-8-8-8s-8 3.589844-8 8v32c0 13.230469-10.769531 24-24 24s-24-10.769531-24-24v-48c0-4.410156-3.585938-8-8-8s-8 3.589844-8 8c0 13.230469-10.769531 24-24 24s-24-10.769531-24-24v-48h16v48c0 4.40625 3.585938 8 8 8s8-3.59375 8-8c0-13.230469 10.769531-24 24-24s24 10.769531 24 24v48c0 4.40625 3.585938 8 8 8s8-3.59375 8-8v-32c0-13.230469 10.769531-24 24-24s24 10.769531 24 24v64c0 4.40625 3.585938 8 8 8s8-3.59375 8-8v-128h16v128c0 13.230469-10.769531 24-24 24zm0 0"/><path d="m192 135.738281h112v16h-112zm0 0"/><path d="m288 199.738281h-16v-56c0-.746093.105469-1.488281.304688-2.199219l15.046874-52.664062-39.351562-65.585938-39.351562 65.59375 15.046874 52.664063c.199219.703125.304688 1.445313.304688 2.191406v56h-16v-54.878906l-15.695312-54.921875c-.601563-2.128906-.304688-4.414062.832031-6.320312l48-80c2.886719-4.824219 10.832031-4.824219 13.71875 0l48 80c1.144531 1.898437 1.441406 4.183593.832031 6.320312l-15.6875 54.921875zm0 0"/><path d="m248 119.738281c-13.230469 0-24-10.769531-24-24s10.769531-24 24-24 24 10.769531 24 24-10.769531 24-24 24zm0-32c-4.414062 0-8 3.589844-8 8 0 4.40625 3.585938 8 8 8s8-3.59375 8-8c0-4.410156-3.585938-8-8-8zm0 0"/><path d="m240 15.738281h16v64h-16zm0 0"/><path d="m176 199.738281h-16v-94.113281l-16-32-16 32v94.113281h-16v-96c0-1.242187.289062-2.472656.839844-3.578125l24-48c2.71875-5.421875 11.59375-5.421875 14.3125 0l24 48c.558594 1.105469.847656 2.335938.847656 3.578125zm0 0"/><path d="m120 95.738281h48v16h-48zm0 0"/><path d="m336 199.738281h-16v-40c0-13.230469 10.769531-24 24-24h80c4.414062 0 8-3.59375 8-8v-56h16v56c0 13.230469-10.769531 24-24 24h-80c-4.414062 0-8 3.589844-8 8zm0 0"/><path d="m466.34375 109.394531-26.34375-26.34375-26.34375 26.34375-11.3125-11.3125 32-32c3.128906-3.128906 8.183594-3.128906 11.3125 0l32 32zm0 0"/><path d="m352 31.738281h16v168h-16zm0 0"/><path d="m386.34375 69.394531-26.34375-26.34375-26.34375 26.34375-11.3125-11.3125 32-32c3.128906-3.128906 8.183594-3.128906 11.3125 0l32 32zm0 0"/></svg>