<svg height="496pt" viewBox="0 0 496 496.00388" width="496pt" xmlns="http://www.w3.org/2000/svg"><path d="m408 328.003906h-304c-8.839844 0-16-7.160156-16-16v-48c0-8.839844 7.160156-16 16-16h304zm0 0" fill="#ed7775"/><path d="m360 408.003906h-304c-8.839844 0-16-7.160156-16-16v-48c0-8.839844 7.160156-16 16-16h304zm0 0" fill="#f6dc74"/><path d="m408 488.003906h-304c-8.839844 0-16-7.160156-16-16v-48c0-8.839844 7.160156-16 16-16h304zm0 0" fill="#599072"/><path d="m488 40.003906c0 17.671875-14.324219 32-32 32-17.671875 0-32-14.328125-32-32s14.328125-32 32-32c17.675781 0 32 14.328125 32 32zm0 0" fill="#699ce6"/><path d="m72 40.003906c0 17.671875-14.324219 32-32 32-17.671875 0-32-14.328125-32-32s14.328125-32 32-32c17.675781 0 32 14.328125 32 32zm0 0" fill="#699ce6"/><path d="m416 104.003906c0 8.835938-7.160156 16-16 16-8.835938 0-16-7.164062-16-16 0-8.835937 7.164062-16 16-16 8.839844 0 16 7.164063 16 16zm0 0" fill="#f8cf6a"/><path d="m112 104.003906c0 8.835938-7.160156 16-16 16-8.835938 0-16-7.164062-16-16 0-8.835937 7.164062-16 16-16 8.839844 0 16 7.164063 16 16zm0 0" fill="#f8cf6a"/><path d="m328 88.003906 32-80-88 24h-48l-88-24 32 80" fill="#bc8f6f"/><path d="m272 32.003906h-72l-61.0625-16.65625 29.0625 72.65625h136l29.066406-72.65625zm0 0" fill="#cb9e78"/><path d="m336 160.003906c0 48.601563-39.398438 88-88 88-48.597656 0-88-39.398437-88-88 0-48.601562 39.402344-88 88-88 48.601562 0 88 39.398438 88 88zm0 0" fill="#bc8f6f"/><path d="m312 160.003906c0-48.097656-34.023438-87.089844-76-87.089844-41.972656 0-76 38.992188-76 87.089844s34.027344 87.089844 76 87.089844c41.976562 0 76-38.992188 76-87.089844zm0 0" fill="#cb9e78"/><path d="m232 88.003906c0 17.671875-14.324219 32-32 32-17.671875 0-32-14.328125-32-32s14.328125-32 32-32c17.675781 0 32 14.328125 32 32zm0 0" fill="#d9d7d8"/><path d="m328 88.003906c0 17.671875-14.324219 32-32 32-17.671875 0-32-14.328125-32-32s14.328125-32 32-32c17.675781 0 32 14.328125 32 32zm0 0" fill="#d9d7d8"/><path d="m296 200.003906c0 26.507813-21.488281 48-48 48-26.507812 0-48-21.492187-48-48 0-26.507812 21.492188-48 48-48 26.511719 0 48 21.492188 48 48zm0 0" fill="#f3c6b0"/><path d="m272 152.003906c0-13.257812-10.742188-24-24-24-13.253906 0-24 10.742188-24 24l24 40zm0 0" fill="#dc6068"/><path d="m408 496.003906h-304c-13.230469 0-24-10.769531-24-24v-48c0-13.230468 10.769531-24 24-24h304c4.425781 0 8 3.574219 8 8v80c0 4.425782-3.574219 8-8 8zm-304-80c-4.414062 0-8 3.582032-8 8v48c0 4.414063 3.585938 8 8 8h296v-64zm0 0"/><path d="m128 408.003906h16v80h-16zm0 0"/><path d="m136 432.003906h200v16h-200zm0 0"/><path d="m352 448.003906h56v16h-56zm0 0"/><path d="m408 336.003906h-304c-13.230469 0-24-10.769531-24-24v-48c0-13.230468 10.769531-24 24-24h304c4.425781 0 8 3.582032 8 8v80c0 4.425782-3.574219 8-8 8zm-304-80c-4.414062 0-8 3.582032-8 8v48c0 4.414063 3.585938 8 8 8h296v-64zm0 0"/><path d="m128 248.003906h16v80h-16zm0 0"/><path d="m136 272.003906h200v16h-200zm0 0"/><path d="m352 288.003906h56v16h-56zm0 0"/><path d="m360 416.003906h-304c-13.230469 0-24-10.769531-24-24v-48c0-13.230468 10.769531-24 24-24h304c4.425781 0 8 3.574219 8 8v80c0 4.425782-3.574219 8-8 8zm-304-80c-4.414062 0-8 3.582032-8 8v48c0 4.414063 3.585938 8 8 8h296v-64zm0 0"/><path d="m80 328.003906h16v80h-16zm0 0"/><path d="m88 352.003906h200v16h-200zm0 0"/><path d="m304 368.003906h56v16h-56zm0 0"/><path d="m248 256.003906c-52.933594 0-96-43.0625-96-96 0-19.96875 6.082031-39.113281 17.570312-55.367187l13.0625 9.230469c-9.566406 13.542968-14.632812 29.496093-14.632812 46.136718 0 44.113282 35.890625 80 80 80 44.113281 0 80-35.886718 80-80 0-16.648437-5.0625-32.609375-14.636719-46.136718l13.0625-9.238282c11.496094 16.246094 17.574219 35.390625 17.574219 55.375 0 52.9375-43.0625 96-96 96zm0 0"/><path d="m230.5625 81.90625-3.488281-15.613281c13.105469-2.921875 27.0625-3.042969 40.253906-.335938l-3.199219 15.671875c-10.992187-2.25-22.664062-2.144531-33.566406.277344zm0 0"/><path d="m200 128.003906c-22.054688 0-40-17.945312-40-40 0-22.054687 17.945312-40 40-40 22.058594 0 40 17.945313 40 40 0 22.054688-17.941406 40-40 40zm0-64c-13.230469 0-24 10.769532-24 24 0 13.230469 10.769531 24 24 24 13.234375 0 24-10.769531 24-24 0-13.230468-10.765625-24-24-24zm0 0"/><path d="m296 128.003906c-22.054688 0-40-17.945312-40-40 0-22.054687 17.945312-40 40-40 22.058594 0 40 17.945313 40 40 0 22.054688-17.941406 40-40 40zm0-64c-13.230469 0-24 10.769532-24 24 0 13.230469 10.769531 24 24 24 13.234375 0 24-10.769531 24-24 0-13.230468-10.765625-24-24-24zm0 0"/><path d="m248 200.003906c-2.8125 0-5.414062-1.472656-6.855469-3.878906l-24-40c-.75-1.25-1.144531-2.671875-1.144531-4.121094 0-17.648437 14.355469-32 32-32 17.648438 0 32 14.351563 32 32 0 1.449219-.390625 2.871094-1.140625 4.121094l-24 40c-1.441406 2.40625-4.042969 3.878906-6.859375 3.878906zm-15.871094-50.007812 15.871094 26.457031 15.875-26.457031c-.992188-7.878906-7.730469-13.992188-15.875-13.992188-8.140625 0-14.878906 6.113282-15.871094 13.992188zm0 0"/><path d="m248 256.003906c-30.871094 0-56-25.121094-56-56 0-21.550781 12.035156-40.832031 31.410156-50.320312l7.03125 14.367187c-13.839844 6.785157-22.441406 20.554688-22.441406 35.953125 0 22.054688 17.945312 40 40 40 22.058594 0 40-17.945312 40-40 0-15.398437-8.597656-29.167968-22.4375-35.953125l7.03125-14.367187c19.375 9.488281 31.40625 28.769531 31.40625 50.320312 0 30.878906-25.125 56-56 56zm0 0"/><path d="m196 96.003906c-6.613281 0-12-5.382812-12-12 0-6.617187 5.386719-12 12-12 6.617188 0 12 5.382813 12 12 0 6.617188-5.382812 12-12 12zm0-16c-2.199219 0-4 1.792969-4 4 0 2.207032 1.800781 4 4 4 2.203125 0 4-1.792968 4-4 0-2.207031-1.796875-4-4-4zm0 0"/><path d="m292 96.003906c-6.613281 0-12-5.382812-12-12 0-6.617187 5.386719-12 12-12 6.617188 0 12 5.382813 12 12 0 6.617188-5.382812 12-12 12zm0-16c-2.199219 0-4 1.792969-4 4 0 2.207032 1.800781 4 4 4 2.203125 0 4-1.792968 4-4 0-2.207031-1.796875-4-4-4zm0 0"/><path d="m335.433594 90.980469-14.855469-5.945313 26.039063-65.078125-72.503907 19.773438c-.6875.175781-1.398437.273437-2.113281.273437h-48c-.710938 0-1.421875-.097656-2.101562-.28125l-72.503907-19.773437 26.039063 65.078125-14.855469 5.945312-32-80c-1.128906-2.824218-.558594-6.03125 1.464844-8.296875 2.015625-2.273437 5.144531-3.191406 8.070312-2.390625l86.960938 23.71875h45.855469l86.96875-23.71875c2.917968-.800781 6.046874.125 8.070312 2.390625s2.585938 5.480469 1.464844 8.296875zm0 0"/><path d="m400 128.003906c-13.230469 0-24-10.769531-24-24 0-13.230468 10.769531-24 24-24 13.234375 0 24 10.769532 24 24 0 13.230469-10.765625 24-24 24zm0-32c-4.414062 0-8 3.59375-8 8s3.585938 8 8 8c4.417969 0 8-3.59375 8-8s-3.582031-8-8-8zm0 0"/><path d="m456 80.003906c-22.054688 0-40-17.945312-40-40 0-22.054687 17.945312-39.99999975 40-39.99999975 22.058594 0 40 17.94531275 40 39.99999975 0 22.054688-17.941406 40-40 40zm0-64c-13.230469 0-24 10.769532-24 24 0 13.230469 10.769531 24 24 24 13.234375 0 24-10.769531 24-24 0-13.230468-10.765625-24-24-24zm0 0"/><path d="m96 128.003906c-13.230469 0-24-10.769531-24-24 0-13.230468 10.769531-24 24-24 13.234375 0 24 10.769532 24 24 0 13.230469-10.765625 24-24 24zm0-32c-4.414062 0-8 3.59375-8 8s3.585938 8 8 8c4.417969 0 8-3.59375 8-8s-3.582031-8-8-8zm0 0"/><path d="m40 80.003906c-22.054688 0-40-17.945312-40-40 0-22.054687 17.945312-39.99999975 40-39.99999975 22.058594 0 40 17.94531275 40 39.99999975 0 22.054688-17.941406 40-40 40zm0-64c-13.230469 0-24 10.769532-24 24 0 13.230469 10.769531 24 24 24 13.234375 0 24-10.769531 24-24 0-13.230468-10.765625-24-24-24zm0 0"/></svg>