<svg height="480pt" viewBox="0 0 480 480" width="480pt" xmlns="http://www.w3.org/2000/svg"><path d="m272 480v-48h-64v48" fill="#bc8f6f"/><path d="m192 400v32h96v-32" fill="#cb9e78"/><path d="m160 352v48h160v-48" fill="#bc8f6f"/><path d="m320 64-24-64h-112l-24 64" fill="#999"/><path d="m184 0-15 40h142l-15-40zm0 0" fill="#656665"/><path d="m432 32v-32h-32v32" fill="#999"/><path d="m448 64v-32h-64v32" fill="#bab8b9"/><path d="m32 64v-48h48v48" fill="#999"/><path d="m32 64v-32h48v32" fill="#bab8b9"/><path d="m448 352h-416c-17.671875 0-32-14.328125-32-32v-224c0-17.671875 14.328125-32 32-32h416c17.671875 0 32 14.328125 32 32v224c0 17.671875-14.328125 32-32 32zm0 0" fill="#656665"/><path d="m432 320c-8.839844 0-16-7.160156-16-16v-192c0-8.839844 7.160156-16 16-16s16 7.160156 16 16v192c0 8.839844-7.160156 16-16 16zm0 0" fill="#999"/><path d="m48 320c-8.839844 0-16-7.160156-16-16v-192c0-8.839844 7.160156-16 16-16s16 7.160156 16 16v192c0 8.839844-7.160156 16-16 16zm0 0" fill="#999"/><path d="m384 112c0 8.835938-7.164062 16-16 16s-16-7.164062-16-16 7.164062-16 16-16 16 7.164062 16 16zm0 0" fill="#df9363"/><path d="m352 208c0 61.855469-50.144531 112-112 112s-112-50.144531-112-112 50.144531-112 112-112 112 50.144531 112 112zm0 0" fill="#999"/><path d="m288 208c0 26.507812-21.492188 48-48 48s-48-21.492188-48-48 21.492188-48 48-48 48 21.492188 48 48zm0 0" fill="#efedee"/><path d="m320 208c0 44.183594-35.816406 80-80 80s-80-35.816406-80-80 35.816406-80 80-80 80 35.816406 80 80zm0 0" fill="#bab8b9"/></svg>