<svg height="418pt" viewBox="0 -1 418.415 418" width="418pt" xmlns="http://www.w3.org/2000/svg"><path d="m69.667969 229.746094h320.464843c11.542969 0 20.902344 9.359375 20.902344 20.902344v41.800781c0 11.539062-9.359375 20.898437-20.902344 20.898437h-320.464843c-11.542969 0-20.902344-9.359375-20.902344-20.898437v-41.800781c0-11.546876 9.359375-20.902344 20.902344-20.902344zm0 0" fill="#ff5e5b"/><path d="m348.335938 250.644531h20.898437c3.847656 0 6.964844 3.121094 6.964844 6.96875v27.867188c0 3.847656-3.117188 6.964843-6.964844 6.964843h-20.898437c-3.847657 0-6.96875-3.117187-6.96875-6.964843v-27.867188c0-3.847656 3.117187-6.96875 6.96875-6.96875zm0 0" fill="#eb120d"/><path d="m299.566406 292.445312c-3.847656 0-6.96875-3.117187-6.96875-6.964843v-27.867188c0-3.847656 3.121094-6.96875 6.96875-6.96875s6.96875 3.121094 6.96875 6.96875v27.867188c0 3.847656-3.121094 6.964843-6.96875 6.964843zm0 0" fill="#eb120d"/><path d="m83.601562 292.445312c-3.847656 0-6.96875-3.117187-6.96875-6.964843v-20.902344c0-3.847656 3.117188-6.964844 6.96875-6.964844 3.847657 0 6.964844 3.117188 6.964844 6.964844v20.902344c0 3.847656-3.117187 6.964843-6.964844 6.964843zm0 0" fill="#eb120d"/><path d="m87.007812 257.113281 95.875 38.71875c16.757813 6.769531 35.492188 6.769531 52.25 0l57.46875-23.214843v-15.003907c0-3.847656 3.117188-6.96875 6.964844-6.96875s6.96875 3.121094 6.96875 6.96875v9.375l24.460938-9.878906c10.480468-4.230469 17.339844-14.402344 17.339844-25.707031v-1.65625h-278.667969v1.65625c-.003907 11.304687 6.859375 21.476562 17.339843 25.710937zm0 0" fill="#eb120d"/><path d="m299.566406 250.644531c-3.847656 0-6.96875 3.121094-6.96875 6.96875v15.003907l13.933594-5.628907v-9.375c.003906-3.847656-3.117188-6.96875-6.964844-6.96875zm0 0" fill="#9e0c09"/><path d="m34.832031 313.347656h306.535157c15.390624 0 27.867187 12.476563 27.867187 27.867188v41.796875c0 15.390625-12.476563 27.867187-27.867187 27.867187h-306.535157c-15.390625 0-27.863281-12.476562-27.863281-27.867187v-41.796875c0-15.390625 12.472656-27.867188 27.863281-27.867188zm0 0" fill="#649454"/><path d="m341.367188 313.347656h-291.617188c3.148438 12.277344 14.207031 20.875 26.882812 20.898438h291.617188c-3.144531-12.28125-14.203125-20.878906-26.882812-20.898438zm0 0" fill="#075057"/><g fill="#9cb16a"><path d="m257.765625 376.046875c-3.847656 0-6.964844-3.121094-6.964844-6.96875v-13.933594c0-3.84375 3.117188-6.964843 6.964844-6.964843 3.851563 0 6.96875 3.117187 6.96875 6.964843v13.933594c0 3.847656-3.121094 6.96875-6.96875 6.96875zm0 0"/><path d="m285.632812 389.980469c-3.847656 0-6.964843-3.121094-6.964843-6.96875v-41.800781c0-3.847657 3.117187-6.964844 6.964843-6.964844 3.847657 0 6.96875 3.117187 6.96875 6.964844v41.800781c0 3.847656-3.121093 6.96875-6.96875 6.96875zm0 0"/><path d="m320.46875 389.980469c-3.847656 0-6.96875-3.121094-6.96875-6.96875v-41.800781c0-3.847657 3.117188-6.964844 6.96875-6.964844 3.847656 0 6.964844 3.117187 6.964844 6.964844v41.800781c0 3.847656-3.117188 6.96875-6.964844 6.96875zm0 0"/><path d="m55.734375 337.730469h69.667969c3.84375 0 6.964844 3.117187 6.964844 6.964843v34.835938c0 3.847656-3.117188 6.964844-6.964844 6.964844h-69.667969c-3.847656 0-6.96875-3.117188-6.96875-6.964844v-34.835938c0-3.847656 3.121094-6.964843 6.96875-6.964843zm0 0"/><path d="m229.902344 389.980469c-3.847656 0-6.96875-3.121094-6.96875-6.96875v-41.800781c0-3.847657 3.117187-6.964844 6.96875-6.964844 3.84375 0 6.964844 3.117187 6.964844 6.964844v41.800781c0 3.847656-3.121094 6.96875-6.964844 6.96875zm0 0"/></g><path d="m330.992188 236.210938-95.875 38.722656c-16.757813 6.765625-35.492188 6.765625-52.25 0l-95.863282-38.722656c-10.480468-4.234376-17.339844-14.40625-17.339844-25.707032v-134.023437h278.671876v134.023437c0 11.304688-6.863282 21.472656-17.34375 25.707032zm0 0" fill="#649454"/><path d="m271.699219 122.460938v63.484374c-8.816407 3.847657-12.84375 14.113282-8.996094 22.929688s14.113281 12.84375 22.929687 8.996094c8.816407-3.847656 12.84375-14.113282 8.996094-22.929688-1.757812-4.023437-4.96875-7.238281-8.996094-8.996094v-67.664062c0-2.566406-1.40625-4.925781-3.664062-6.140625l-66.230469-35.660156h-29.402343zm0 0" fill="#075057"/><path d="m348.335938 76.480469h-278.667969v34.832031l136.777343 69.25c1.65625.554688 3.453126.554688 5.113282 0l136.777344-69.25zm0 0" fill="#075057"/><path d="m206.441406 146.089844-194.535156-65.964844c-3.636719-1.066406-5.726562-4.875-4.664062-8.511719.679687-2.332031 2.542968-4.128906 4.894531-4.726562l194.535156-59.378907c1.519531-.464843 3.140625-.464843 4.65625 0l194.535156 59.363282c3.675781.9375 5.894531 4.671875 4.957031 8.34375-.597656 2.351562-2.394531 4.214844-4.722656 4.894531l-194.539062 65.980469c-1.660156.558594-3.457032.558594-5.117188 0zm0 0" fill="#c2d197"/><path d="m316.984375 201.878906c0 9.621094-7.796875 17.417969-17.417969 17.417969-9.617187 0-17.417968-7.796875-17.417968-17.417969 0-9.617187 7.800781-17.417968 17.417968-17.417968 9.621094 0 17.417969 7.800781 17.417969 17.417968zm0 0" fill="#9cb16a"/><path d="m299.566406 194.914062c-3.847656 0-6.96875-3.121093-6.96875-6.96875v-65.484374l-86.902344-46.8125c-3.386718-1.824219-4.65625-6.046876-2.832031-9.4375 1.824219-3.390626 6.046875-4.660157 9.4375-2.835938l90.566407 48.765625c2.257812 1.214844 3.667968 3.574219 3.664062 6.140625v69.664062c.003906 3.847657-3.117188 6.96875-6.964844 6.96875zm0 0" fill="#9cb16a"/><path d="m369.234375 264.582031c3.847656 0 6.964844-3.121093 6.964844-6.96875 0-3.847656-3.117188-6.96875-6.964844-6.96875h-20.898437c-7.695313 0-13.933594 6.238281-13.933594 13.933594v13.933594c0 7.695312 6.238281 13.933593 13.933594 13.933593h20.898437c3.847656 0 6.964844-3.117187 6.964844-6.96875 0-3.847656-3.117188-6.964843-6.964844-6.964843h-20.898437v-13.933594h20.898437zm0 0"/><path d="m250.800781 355.144531v13.933594c0 3.847656 3.117188 6.96875 6.964844 6.96875 3.851563 0 6.96875-3.121094 6.96875-6.96875v-13.933594c0-3.84375-3.117187-6.964843-6.96875-6.964843-3.847656 0-6.964844 3.121093-6.964844 6.964843zm0 0"/><path d="m278.667969 341.214844v41.796875c0 3.847656 3.117187 6.96875 6.964843 6.96875 3.847657 0 6.96875-3.117188 6.96875-6.96875v-41.796875c0-3.847656-3.117187-6.96875-6.96875-6.96875-3.847656 0-6.964843 3.121094-6.964843 6.96875zm0 0"/><path d="m313.5 341.214844v41.796875c0 3.847656 3.121094 6.96875 6.96875 6.96875s6.964844-3.117188 6.964844-6.96875v-41.796875c0-3.847656-3.117188-6.96875-6.964844-6.96875s-6.96875 3.121094-6.96875 6.96875zm0 0"/><path d="m62.699219 348.179688c3.847656 0 6.96875-3.117188 6.96875-6.964844 0-3.851563-3.121094-6.96875-6.96875-6.96875-11.542969 0-20.898438 9.359375-20.898438 20.898437v13.933594c0 11.542969 9.355469 20.902344 20.898438 20.902344h55.734375c11.542968 0 20.898437-9.359375 20.898437-20.902344v-13.933594c0-11.539062-9.355469-20.898437-20.898437-20.898437-3.847656 0-6.96875 3.117187-6.96875 6.96875 0 3.847656 3.121094 6.964844 6.96875 6.964844s6.96875 3.121093 6.96875 6.96875v13.933593c0 3.84375-3.121094 6.964844-6.96875 6.964844h-55.734375c-3.847657 0-6.964844-3.117187-6.964844-6.964844v-13.933593c0-3.847657 3.117187-6.96875 6.964844-6.96875zm0 0"/><path d="m222.933594 341.214844v41.796875c0 3.847656 3.117187 6.96875 6.96875 6.96875 3.84375 0 6.964844-3.117188 6.964844-6.96875v-41.796875c0-3.847656-3.117188-6.96875-6.964844-6.96875-3.851563 0-6.96875 3.121094-6.96875 6.96875zm0 0"/><path d="m390.132812 222.78125h-37.144531c1.503907-3.917969 2.289063-8.078125 2.3125-12.277344v-78.289062c0-3.847656-3.121093-6.96875-6.96875-6.96875-3.847656 0-6.964843 3.121094-6.964843 6.96875v78.289062c.019531 5.269532-1.976563 10.347656-5.574219 14.199219l-.265625.242187c-2.019532 2.085938-4.453125 3.71875-7.148438 4.800782l-95.867187 38.726562c-15.078125 6.117188-31.941407 6.117188-47.019531 0l-95.875-38.726562c-7.863282-3.144532-13.011719-10.773438-12.984376-19.242188v-101.070312l48.765626 16.507812v55.039063c0 3.847656 3.117187 6.964843 6.964843 6.964843 3.847657 0 6.96875-3.117187 6.96875-6.964843v-50.292969l64.875 21.992188c3.109375 1.058593 6.480469 1.058593 9.589844 0l78.800781-26.738282v56.300782c-10.882812 3.847656-16.585937 15.785156-12.738281 26.671874 3.847656 10.878907 15.789063 16.582032 26.671875 12.738282 10.882812-3.847656 16.585938-15.789063 12.738281-26.671875-2.101562-5.953125-6.785156-10.632813-12.738281-12.738281v-61l101.804688-34.515626c7.273437-2.328124 11.28125-10.113281 8.953124-17.386718-1.410156-4.410156-4.9375-7.820313-9.390624-9.085938l-194.53125-59.390625c-2.84375-.8749998-5.882813-.8749998-8.726563 0l-194.539063 59.363281c-7.347656 2.085938-11.609374 9.734376-9.523437 17.078126 1.261719 4.457031 4.675781 7.980468 9.085937 9.394531l53.035157 18.007812v105.796875c.023437 4.199219.8125 8.359375 2.320312 12.273438h-2.542969c-11.414062.011718-20.664062 9.261718-20.675781 20.679687v21.121094c0 3.847656 3.117188 6.96875 6.96875 6.96875 3.847657 0 6.964844-3.121094 6.964844-6.96875v-21.121094c.007813-3.722656 3.023437-6.738281 6.742187-6.746093h12.242188c2.878906 2.507812 6.148438 4.519531 9.683594 5.957031l95.875 38.726562c18.421875 7.484375 39.035156 7.484375 57.453125 0l54.871093-22.160156v26.246094c0 3.847656 3.117188 6.964843 6.96875 6.964843 3.847657 0 6.964844-3.117187 6.964844-6.964843v-27.867188c-.027344-1.265625-.414062-2.496093-1.113281-3.554687l28.179687-11.382813c3.535157-1.445312 6.808594-3.457031 9.691407-5.964843h46.839843c7.695313 0 13.933594 6.238281 13.933594 13.933593v41.800781c0 7.695313-6.238281 13.933594-13.933594 13.933594h-355.300781c-19.226562.023438-34.8085935 15.605469-34.832031 34.835938v41.796875c.0234375 19.230469 15.605469 34.8125 34.832031 34.835937h306.535157c3.847656 0 6.96875-3.121094 6.96875-6.96875s-3.121094-6.964844-6.96875-6.964844h-306.535157c-11.542969 0-20.898437-9.359374-20.898437-20.902343v-41.800781c0-11.542969 9.355468-20.898438 20.898437-20.898438h355.300781c15.390626 0 27.867188-12.476562 27.867188-27.867188v-41.800781c0-15.386719-12.476562-27.863281-27.867188-27.863281zm-90.566406-13.933594c-3.847656 0-6.96875-3.121094-6.96875-6.96875s3.121094-6.964844 6.96875-6.964844 6.96875 3.117188 6.96875 6.964844-3.121094 6.96875-6.96875 6.96875zm-90.273437-194.664062 194.566406 59.34375-105.972656 35.933594-85.585938-46.085938c-3.386719-1.824219-7.613281-.554688-9.4375 2.835938-1.824219 3.390624-.554687 7.617187 2.835938 9.441406l74.144531 39.925781-70.539062 23.914063c-.199219.070312-.414063.070312-.613282 0l-194.519531-65.945313zm0 0"/><path d="m90.566406 285.480469v-20.902344c0-3.847656-3.117187-6.964844-6.964844-6.964844-3.851562 0-6.96875 3.117188-6.96875 6.964844v20.902344c0 3.847656 3.117188 6.964843 6.96875 6.964843 3.847657 0 6.964844-3.117187 6.964844-6.964843zm0 0"/></svg>