<svg height="418pt" viewBox="0 0 418 418.44468" width="418pt" xmlns="http://www.w3.org/2000/svg"><path d="m7.1875 181.121094v-139.324219c0-15.390625 12.476562-27.863281 27.867188-27.863281h348.308593c15.390625 0 27.863281 12.476562 27.863281 27.863281v139.324219c0 15.390625-12.472656 27.863281-27.863281 27.863281h-348.308593c-15.390626 0-27.867188-12.472656-27.867188-27.863281zm0 0" fill="#649454"/><path d="m7.1875 174.15625v-139.324219c0-15.390625 12.476562-27.867187 27.867188-27.867187h348.308593c15.390625 0 27.863281 12.476562 27.863281 27.867187v139.324219c0 15.386719-12.472656 27.863281-27.863281 27.863281h-348.308593c-15.390626 0-27.867188-12.476562-27.867188-27.863281zm0 0" fill="#c2d197"/><path d="m104.714844 62.695312c0 15.390626-12.476563 27.863282-27.863282 27.863282-15.390624 0-27.863281-12.472656-27.863281-27.863282 0-15.390624 12.472657-27.863281 27.863281-27.863281 15.386719 0 27.863282 12.472657 27.863282 27.863281zm0 0" fill="#eb120d"/><path d="m192.957031 62.695312c0 15.390626-12.476562 27.863282-27.867187 27.863282-15.386719 0-27.863282-12.472656-27.863282-27.863282 0-15.390624 12.476563-27.863281 27.863282-27.863281 15.390625 0 27.867187 12.472657 27.867187 27.863281zm0 0" fill="#649454"/><path d="m281.191406 62.695312c0 15.390626-12.476562 27.863282-27.867187 27.863282-15.386719 0-27.863281-12.472656-27.863281-27.863282 0-15.390624 12.476562-27.863281 27.863281-27.863281 15.390625 0 27.867187 12.472657 27.867187 27.863281zm0 0" fill="#649454"/><path d="m369.429688 62.695312c0 15.390626-12.476563 27.863282-27.863282 27.863282-15.390625 0-27.863281-12.472656-27.863281-27.863282 0-15.390624 12.472656-27.863281 27.863281-27.863281 15.386719 0 27.863282 12.472657 27.863282 27.863281zm0 0" fill="#eb120d"/><path d="m104.714844 146.289062c0 15.390626-12.476563 27.863282-27.863282 27.863282-15.390624 0-27.863281-12.472656-27.863281-27.863282 0-15.386718 12.472657-27.863281 27.863281-27.863281 15.386719 0 27.863282 12.476563 27.863282 27.863281zm0 0" fill="#9cb16a"/><path d="m192.957031 146.289062c0 15.390626-12.476562 27.863282-27.867187 27.863282-15.386719 0-27.863282-12.472656-27.863282-27.863282 0-15.386718 12.476563-27.863281 27.863282-27.863281 15.390625 0 27.867187 12.476563 27.867187 27.863281zm0 0" fill="#ff5e5b"/><path d="m281.191406 146.289062c0 15.390626-12.476562 27.863282-27.867187 27.863282-15.386719 0-27.863281-12.472656-27.863281-27.863282 0-15.386718 12.476562-27.863281 27.863281-27.863281 15.390625 0 27.867187 12.476563 27.867187 27.863281zm0 0" fill="#9cb16a"/><path d="m369.429688 146.289062c0 15.390626-12.476563 27.863282-27.863282 27.863282-15.390625 0-27.863281-12.472656-27.863281-27.863282 0-15.386718 12.472656-27.863281 27.863281-27.863281 15.386719 0 27.863282 12.476563 27.863282 27.863281zm0 0" fill="#ff5e5b"/><path d="m76.851562 41.796875c14.007813.027344 25.800782 10.480469 27.515626 24.382813.1875-1.152344.304687-2.316407.347656-3.484376 0-15.386718-12.472656-27.863281-27.863282-27.863281-15.386718 0-27.867187 12.476563-27.867187 27.863281.046875 1.167969.164063 2.332032.351563 3.484376 1.710937-13.902344 13.507812-24.355469 27.515624-24.382813zm0 0" fill="#9e0c09"/><path d="m165.089844 41.796875c14.007812.027344 25.804687 10.480469 27.511718 24.382813.191407-1.152344.308594-2.316407.355469-3.484376 0-15.386718-12.476562-27.863281-27.863281-27.863281-15.390625 0-27.867188 12.476563-27.867188 27.863281.042969 1.167969.160157 2.332032.351563 3.484376 1.710937-13.902344 13.507813-24.355469 27.511719-24.382813zm0 0" fill="#075057"/><path d="m253.324219 41.796875c14.007812.027344 25.804687 10.480469 27.519531 24.382813.1875-1.152344.304688-2.316407.347656-3.484376 0-15.386718-12.476562-27.863281-27.863281-27.863281-15.390625 0-27.867187 12.476563-27.867187 27.863281.046874 1.167969.164062 2.332032.355468 3.484376 1.707032-13.902344 13.5-24.355469 27.507813-24.382813zm0 0" fill="#075057"/><path d="m341.566406 41.796875c14.007813.027344 25.800782 10.480469 27.515625 24.382813.1875-1.152344.304688-2.316407.347657-3.484376 0-15.386718-12.472657-27.863281-27.863282-27.863281-15.386718 0-27.863281 12.476563-27.863281 27.863281.042969 1.167969.160156 2.332032.347656 3.484376 1.710938-13.902344 13.507813-24.355469 27.515625-24.382813zm0 0" fill="#9e0c09"/><path d="m76.851562 125.390625c14.007813.027344 25.800782 10.480469 27.515626 24.382813.1875-1.152344.304687-2.316407.347656-3.484376 0-15.386718-12.472656-27.863281-27.863282-27.863281-15.386718 0-27.863281 12.476563-27.863281 27.863281.042969 1.167969.160157 2.332032.347657 3.484376 1.710937-13.902344 13.507812-24.355469 27.515624-24.382813zm0 0" fill="#649454"/><path d="m165.089844 125.390625c14.007812.027344 25.804687 10.480469 27.511718 24.382813.191407-1.152344.308594-2.316407.355469-3.484376 0-15.386718-12.476562-27.863281-27.863281-27.863281-15.390625 0-27.867188 12.476563-27.867188 27.863281.042969 1.167969.160157 2.332032.351563 3.484376 1.710937-13.902344 13.507813-24.355469 27.511719-24.382813zm0 0" fill="#eb120d"/><path d="m253.324219 125.390625c14.007812.027344 25.804687 10.480469 27.519531 24.382813.1875-1.152344.304688-2.316407.347656-3.484376 0-15.386718-12.476562-27.863281-27.863281-27.863281-15.390625 0-27.867187 12.476563-27.867187 27.863281.046874 1.167969.164062 2.332032.355468 3.484376 1.707032-13.902344 13.5-24.355469 27.507813-24.382813zm0 0" fill="#649454"/><path d="m341.566406 125.390625c14.007813.027344 25.800782 10.480469 27.515625 24.382813.1875-1.152344.304688-2.316407.347657-3.484376 0-15.386718-12.472657-27.863281-27.863282-27.863281-15.386718 0-27.863281 12.476563-27.863281 27.863281.042969 1.167969.160156 2.332032.347656 3.484376 1.710938-13.902344 13.507813-24.355469 27.515625-24.382813zm0 0" fill="#eb120d"/><path d="m90.78125 292.582031h-69.660156v-50.679687c-.019532-3.847656 3.082031-6.984375 6.929687-7.003906.480469-.003907.957031.046874 1.429688.140624l55.671875 11.144532c3.273437.644531 5.632812 3.519531 5.625 6.855468zm0 0" fill="#c2d197"/><path d="m21.121094 292.582031h69.660156v41.796875h-69.660156zm0 0" fill="#649454"/><path d="m28.085938 411.003906-6.964844-76.628906h69.660156l-6.964844 76.628906" fill="#9cb16a"/><path d="m48.984375 264.714844c3.847656 0 6.96875-3.117188 6.96875-6.964844v-17.417969l-13.933594-2.785156v20.203125c0 3.847656 3.117188 6.964844 6.964844 6.964844zm0 0" fill="#9cb16a"/><path d="m90.78125 334.375h-69.660156l.632812 6.96875zm0 0" fill="#075057"/><path d="m195.277344 376.175781h-41.796875l-13.933594-83.59375h69.660156zm0 0" fill="#9cb16a"/><path d="m146.511719 229.886719h55.730469c3.847656 0 6.96875 3.117187 6.96875 6.964843v55.730469h-69.664063v-55.730469c0-3.847656 3.117187-6.964843 6.964844-6.964843zm0 0" fill="#ff5e5b"/><path d="m153.480469 411.003906v-34.828125h41.796875v34.828125" fill="#eb120d"/><path d="m153.480469 383.140625v-6.964844h41.796875" fill="#9e0c09"/><path d="m167.410156 271.679688c3.847656 0 6.96875-3.117188 6.96875-6.964844v-34.832032h-13.933594v34.832032c0 3.847656 3.117188 6.964844 6.964844 6.964844zm0 0" fill="#eb120d"/><path d="m244.039062 411.003906v-83.59375h27.863282v83.59375" fill="#649454"/><path d="m244.039062 292.582031h27.863282v34.828125h-27.863282zm0 0" fill="#eb120d"/><path d="m271.902344 292.582031h-27.863282l10.554688-47.492187c.46875-1.863282 2.359375-2.996094 4.226562-2.53125 1.246094.3125 2.21875 1.285156 2.53125 2.53125zm0 0" fill="#c2d197"/><path d="m244.039062 334.375v-6.964844h27.863282" fill="#075057"/><path d="m383.363281 327.410156h27.863281v83.59375h-27.863281zm0 0" fill="#eb120d"/><path d="m411.226562 327.410156h-27.863281l10.449219-78.570312c.242188-1.90625 1.988281-3.257813 3.894531-3.015625 1.574219.199219 2.816407 1.441406 3.015625 3.015625zm0 0" fill="#ff5e5b"/><path d="m383.363281 376.175781h27.863281v34.828125h-27.863281zm0 0" fill="#9cb16a"/><path d="m411.226562 376.175781h-27.863281v6.964844zm0 0" fill="#9e0c09"/><path d="m313.703125 236.851562h34.828125c3.847656 0 6.96875 3.117188 6.96875 6.964844v55.730469h-48.765625v-55.730469c0-3.847656 3.121094-6.964844 6.96875-6.964844zm0 0" fill="#c2d197"/><path d="m306.734375 299.546875h48.761719v41.796875h-48.761719zm0 0" fill="#649454"/><path d="m348.53125 411.003906 6.964844-69.660156h-48.761719l6.96875 69.660156" fill="#eb120d"/><path d="m307.433594 348.308594 48.0625-6.964844h-48.761719zm0 0" fill="#9e0c09"/><path d="m383.363281 0h-348.308593c-19.226563.0234375-34.808594 15.601562-34.832032 34.832031v139.324219c.023438 19.226562 15.601563 34.808594 34.832032 34.828125h348.308593c19.226563-.019531 34.808594-15.601563 34.832031-34.828125v-139.324219c-.023437-19.230469-15.605468-34.8085935-34.832031-34.832031zm20.898438 174.15625c0 11.539062-9.355469 20.898438-20.898438 20.898438h-348.308593c-11.542969 0-20.898438-9.359376-20.898438-20.898438v-139.324219c0-11.542969 9.355469-20.898437 20.898438-20.898437h348.308593c11.542969 0 20.898438 9.355468 20.898438 20.898437zm0 0"/><path d="m104.714844 55.730469c-3.847656 0-6.964844 3.117187-6.964844 6.964843 0 11.542969-9.359375 20.898438-20.898438 20.898438-11.542968 0-20.902343-9.355469-20.902343-20.898438 0-11.539062 9.359375-20.898437 20.902343-20.898437 3.84375 0 6.964844-3.117187 6.964844-6.964844 0-3.847656-3.117187-6.96875-6.964844-6.96875-19.238281 0-34.832031 15.59375-34.832031 34.832031 0 19.238282 15.59375 34.832032 34.832031 34.832032 19.234376 0 34.832032-15.59375 34.832032-34.832032 0-3.847656-3.121094-6.964843-6.96875-6.964843zm0 0"/><path d="m165.089844 27.863281c-19.234375 0-34.828125 15.59375-34.828125 34.832031 0 19.238282 15.59375 34.832032 34.828125 34.832032 19.238281 0 34.832031-15.59375 34.832031-34.832032-.023437-19.226562-15.601563-34.808593-34.832031-34.832031zm0 55.730469c-11.539063 0-20.898438-9.355469-20.898438-20.898438 0-11.542968 9.359375-20.898437 20.898438-20.898437 11.542968 0 20.898437 9.355469 20.898437 20.898437 0 11.542969-9.355469 20.898438-20.898437 20.898438zm0 0"/><path d="m253.332031 27.863281c-19.234375 0-34.832031 15.59375-34.832031 34.832031 0 19.238282 15.597656 34.832032 34.832031 34.832032 19.238281 0 34.832031-15.59375 34.832031-34.832032-.023437-19.226562-15.605468-34.808593-34.832031-34.832031zm0 55.730469c-11.542969 0-20.898437-9.355469-20.898437-20.898438 0-11.542968 9.355468-20.898437 20.898437-20.898437s20.898438 9.355469 20.898438 20.898437c0 11.542969-9.355469 20.898438-20.898438 20.898438zm0 0"/><path d="m341.566406 27.863281c-19.238281 0-34.832031 15.59375-34.832031 34.832031 0 19.238282 15.59375 34.832032 34.832031 34.832032 19.234375 0 34.832032-15.59375 34.832032-34.832032-.023438-19.226562-15.605469-34.808593-34.832032-34.832031zm0 55.730469c-11.542968 0-20.898437-9.355469-20.898437-20.898438 0-11.542968 9.355469-20.898437 20.898437-20.898437 11.542969 0 20.898438 9.355469 20.898438 20.898437 0 11.542969-9.355469 20.898438-20.898438 20.898438zm0 0"/><path d="m76.851562 111.457031c-19.238281 0-34.832031 15.597657-34.832031 34.832031 0 19.238282 15.59375 34.832032 34.832031 34.832032 19.234376 0 34.832032-15.59375 34.832032-34.832032-.023438-19.226562-15.605469-34.804687-34.832032-34.832031zm0 55.730469c-11.542968 0-20.898437-9.355469-20.898437-20.898438 0-11.542968 9.355469-20.898437 20.898437-20.898437 11.542969 0 20.898438 9.355469 20.898438 20.898437 0 11.542969-9.355469 20.898438-20.898438 20.898438zm0 0"/><path d="m165.089844 111.457031c-19.234375 0-34.828125 15.597657-34.828125 34.832031 0 19.238282 15.59375 34.832032 34.828125 34.832032 3.847656 0 6.96875-3.121094 6.96875-6.96875 0-3.84375-3.121094-6.964844-6.96875-6.964844-11.539063 0-20.898438-9.355469-20.898438-20.898438 0-11.542968 9.359375-20.898437 20.898438-20.898437 11.542968 0 20.898437 9.355469 20.898437 20.898437 0 3.847657 3.121094 6.964844 6.96875 6.964844 3.847657 0 6.964844-3.117187 6.964844-6.964844-.023437-19.226562-15.601563-34.804687-34.832031-34.832031zm0 0"/><path d="m281.195312 139.324219c-3.84375 0-6.964843 3.117187-6.964843 6.964843 0 11.542969-9.355469 20.898438-20.898438 20.898438s-20.898437-9.355469-20.898437-20.898438c0-11.539062 9.355468-20.898437 20.898437-20.898437 3.847657 0 6.964844-3.117187 6.964844-6.964844 0-3.847656-3.117187-6.96875-6.964844-6.96875-19.238281 0-34.832031 15.597657-34.832031 34.832031 0 19.238282 15.59375 34.832032 34.832031 34.832032 19.234375 0 34.832031-15.59375 34.832031-34.832032 0-3.847656-3.121093-6.964843-6.96875-6.964843zm0 0"/><path d="m341.566406 111.457031c-19.238281 0-34.832031 15.597657-34.832031 34.832031 0 19.238282 15.59375 34.832032 34.832031 34.832032 19.234375 0 34.832032-15.59375 34.832032-34.832032-.023438-19.226562-15.605469-34.804687-34.832032-34.832031zm0 55.730469c-11.542968 0-20.898437-9.355469-20.898437-20.898438 0-11.542968 9.355469-20.898437 20.898437-20.898437 11.542969 0 20.898438 9.355469 20.898438 20.898437 0 11.542969-9.355469 20.898438-20.898438 20.898438zm0 0"/><path d="m92.175781 240.472656-69.660156-13.933594c-3.769531-.769531-7.449219 1.664063-8.21875 5.433594-.09375.457032-.140625.925782-.140625 1.394532v101.007812c0 .113281.0625.210938.0625.324219 0 .109375-.0625.199219-.0625.304687l6.964844 76.628906c.347656 3.847657 3.746094 6.6875 7.59375 6.339844s6.6875-3.746094 6.339844-7.59375l-6.269532-69.035156h54.40625l-6.339844 69.035156c-.359374 3.832032 2.453126 7.226563 6.28125 7.589844.019532 0 .039063 0 .058594.003906h.632813c3.617187.015625 6.640625-2.738281 6.96875-6.339844l6.964843-76.628906c0-.105468-.042968-.203125-.035156-.304687.007813-.105469.027344-.210938.027344-.324219v-87.074219c0-3.3125-2.328125-6.164062-5.574219-6.828125zm-64.089843 1.394532 13.933593 2.785156v20.0625c0 3.847656 3.117188 6.964844 6.96875 6.964844 3.847657 0 6.964844-3.117188 6.964844-6.964844v-17.277344l27.863281 5.574219v32.601562h-55.730468zm0 85.542968v-27.863281h55.730468v27.863281zm0 0"/><path d="m209.207031 222.917969h-69.660156c-3.847656 0-6.96875 3.117187-6.96875 6.96875v62.695312c.03125.191407.070313.378907.121094.570313-.011719.191406-.011719.386718 0 .578125l13.8125 83.023437v34.25c0 3.847656 3.121093 6.96875 6.96875 6.96875 3.847656 0 6.964843-3.121094 6.964843-6.96875v-27.863281h27.863282v27.863281c0 3.847656 3.121094 6.96875 6.96875 6.96875s6.964844-3.121094 6.964844-6.96875v-34.25l13.835937-83.023437c.035156-.203125 0-.382813 0-.578125 0-.195313.097656-.371094.097656-.570313v-62.695312c0-3.851563-3.121093-6.96875-6.96875-6.96875zm-62.695312 13.933593h13.933593v27.863282c0 3.847656 3.117188 6.964844 6.964844 6.964844s6.96875-3.117188 6.96875-6.964844v-27.863282h27.863282v48.761719h-55.730469zm12.867187 132.355469-11.605468-69.660156h53.214843l-11.613281 69.660156zm0 0"/><path d="m278.703125 291.070312-13.933594-62.695312c-.835937-3.757812-4.558593-6.121094-8.3125-5.285156-2.636719.589844-4.695312 2.648437-5.285156 5.285156l-13.929687 62.695312c-.015626.230469-.015626.464844 0 .695313-.078126.265625-.132813.539063-.167969.816406v118.421875c0 3.847656 3.117187 6.96875 6.964843 6.96875 3.847657 0 6.96875-3.121094 6.96875-6.96875v-76.628906h13.929688v76.628906c0 3.847656 3.121094 6.96875 6.96875 6.96875s6.964844-3.121094 6.964844-6.96875v-118.421875c-.035156-.285156-.09375-.566406-.164063-.84375-.03125-.222656.042969-.445312-.003906-.667969zm-20.730469-29.070312 5.25 23.613281h-10.496094zm-6.964844 58.445312v-20.898437h13.929688v20.898437zm0 0"/><path d="m418.132812 326.492188-13.933593-104.492188c-.515625-3.816406-4.023438-6.488281-7.835938-5.972656-3.109375.417968-5.550781 2.863281-5.96875 5.972656l-13.933593 104.492188c0 .160156.042968.304687 0 .464843-.042969.160157-.0625.292969-.0625.453125v83.59375c0 3.847656 3.117187 6.96875 6.964843 6.96875 3.847657 0 6.96875-3.121094 6.96875-6.96875v-27.863281h13.929688v27.863281c0 3.847656 3.121093 6.96875 6.96875 6.96875 3.847656 0 6.964843-3.121094 6.964843-6.96875v-83.59375c0-.160156-.082031-.300781-.089843-.453125-.007813-.152343.046875-.304687.027343-.464843zm-20.835937-50.867188 5.976563 44.820312h-11.957032zm-6.96875 93.582031v-34.832031h13.933594v34.832031zm0 0"/><path d="m355.496094 229.886719h-48.761719c-3.847656 0-6.964844 3.117187-6.964844 6.964843v104.492188c0 .125.0625.230469.070313.355469.003906.125-.050782.222656 0 .34375l6.964844 69.660156c.382812 3.828125 3.800781 6.621094 7.628906 6.234375 3.828125-.382812 6.617187-3.800781 6.234375-7.628906l-6.203125-61.996094h33.371094l-6.203126 61.996094c-.402343 3.828125 2.367188 7.257812 6.195313 7.664062h.007813c.230468.015625.460937.015625.695312 0 3.589844.019532 6.605469-2.695312 6.964844-6.269531l6.96875-69.660156c0-.121094-.042969-.230469 0-.34375.039062-.109375 0-.230469 0-.355469v-104.492188c0-3.847656-3.117188-6.964843-6.96875-6.964843zm-41.792969 13.929687h34.828125v48.765625h-34.828125zm0 90.558594v-27.863281h34.828125v27.863281zm0 0"/></svg>