<svg height="431pt" viewBox="0 0 431 431.13401" width="431pt" xmlns="http://www.w3.org/2000/svg"><path d="m.0664062 185.777344v-148.621094c0-16.417969 13.3085938-29.726562 29.7226558-29.726562h371.554688c16.414062 0 29.722656 13.308593 29.722656 29.726562v148.621094c0 16.414062-13.308594 29.722656-29.722656 29.722656h-371.554688c-16.414062 0-29.7226558-13.308594-29.7226558-29.722656zm0 0" fill="#649454"/><path d="m.0664062 178.34375v-148.621094c0-16.414062 13.3085938-29.722656 29.7226558-29.722656h371.554688c16.414062 0 29.722656 13.308594 29.722656 29.722656v148.621094c0 16.417969-13.308594 29.726562-29.722656 29.726562h-371.554688c-16.414062 0-29.7226558-13.308593-29.7226558-29.726562zm0 0" fill="#c2d197"/><path d="m104.101562 59.449219c0 16.414062-13.308593 29.722656-29.722656 29.722656-16.417968 0-29.726562-13.308594-29.726562-29.722656 0-16.417969 13.308594-29.722657 29.726562-29.722657 16.414063 0 29.722656 13.304688 29.722656 29.722657zm0 0" fill="#eb120d"/><path d="m198.230469 59.449219c0 16.414062-13.308594 29.722656-29.722657 29.722656-16.417968 0-29.726562-13.308594-29.726562-29.722656 0-16.417969 13.308594-29.722657 29.726562-29.722657 16.414063 0 29.722657 13.304688 29.722657 29.722657zm0 0" fill="#649454"/><path d="m292.351562 59.449219c0 16.414062-13.308593 29.722656-29.722656 29.722656-16.417968 0-29.726562-13.308594-29.726562-29.722656 0-16.417969 13.308594-29.722657 29.726562-29.722657 16.414063 0 29.722656 13.304688 29.722656 29.722657zm0 0" fill="#649454"/><path d="m386.480469 59.449219c0 16.414062-13.308594 29.722656-29.722657 29.722656-16.417968 0-29.726562-13.308594-29.726562-29.722656 0-16.417969 13.308594-29.722657 29.726562-29.722657 16.414063 0 29.722657 13.304688 29.722657 29.722657zm0 0" fill="#eb120d"/><path d="m104.101562 148.621094c0 16.417968-13.308593 29.722656-29.722656 29.722656-16.417968 0-29.726562-13.304688-29.726562-29.722656 0-16.414063 13.308594-29.722656 29.726562-29.722656 16.414063 0 29.722656 13.308593 29.722656 29.722656zm0 0" fill="#9cb16a"/><path d="m198.230469 148.621094c0 16.417968-13.308594 29.722656-29.722657 29.722656-16.417968 0-29.726562-13.304688-29.726562-29.722656 0-16.414063 13.308594-29.722656 29.726562-29.722656 16.414063 0 29.722657 13.308593 29.722657 29.722656zm0 0" fill="#ff5e5b"/><path d="m292.351562 148.621094c0 16.417968-13.308593 29.722656-29.722656 29.722656-16.417968 0-29.726562-13.304688-29.726562-29.722656 0-16.414063 13.308594-29.722656 29.726562-29.722656 16.414063 0 29.722656 13.308593 29.722656 29.722656zm0 0" fill="#9cb16a"/><path d="m386.480469 148.621094c0 16.417968-13.308594 29.722656-29.722657 29.722656-16.417968 0-29.726562-13.304688-29.726562-29.722656 0-16.414063 13.308594-29.722656 29.726562-29.722656 16.414063 0 29.722657 13.308593 29.722657 29.722656zm0 0" fill="#ff5e5b"/><path d="m74.378906 37.15625c14.941406.027344 27.523438 11.179688 29.351563 26.007812.199219-1.230468.324219-2.46875.371093-3.714843 0-16.417969-13.308593-29.722657-29.722656-29.722657-16.417968 0-29.726562 13.304688-29.726562 29.722657.050781 1.242187.171875 2.484375.371094 3.714843 1.832031-14.828124 14.414062-25.980468 29.355468-26.007812zm0 0" fill="#9e0c09"/><path d="m168.507812 37.15625c14.941407.027344 27.523438 11.179688 29.34375 26.007812.203126-1.230468.332032-2.46875.378907-3.714843 0-16.417969-13.308594-29.722657-29.722657-29.722657-16.417968 0-29.726562 13.304688-29.726562 29.722657.046875 1.246093.167969 2.484375.371094 3.714843 1.832031-14.828124 14.414062-25.980468 29.355468-26.007812zm0 0" fill="#075057"/><path d="m262.628906 37.15625c14.941406.027344 27.523438 11.179688 29.351563 26.007812.203125-1.230468.328125-2.46875.371093-3.714843 0-16.417969-13.308593-29.722657-29.722656-29.722657-16.414062 0-29.722656 13.304688-29.722656 29.722657.046875 1.246093.171875 2.484375.378906 3.714843 1.820313-14.828124 14.402344-25.980468 29.34375-26.007812zm0 0" fill="#075057"/><path d="m356.757812 37.15625c14.941407.027344 27.523438 11.179688 29.351563 26.007812.199219-1.230468.324219-2.46875.371094-3.714843 0-16.417969-13.304688-29.722657-29.722657-29.722657-16.414062 0-29.722656 13.304688-29.722656 29.722657.046875 1.242187.171875 2.484375.371094 3.714843 1.828125-14.828124 14.410156-25.980468 29.351562-26.007812zm0 0" fill="#9e0c09"/><path d="m74.378906 126.328125c14.941406.03125 27.523438 11.179687 29.351563 26.007813.199219-1.230469.324219-2.46875.371093-3.714844 0-16.414063-13.308593-29.722656-29.722656-29.722656-16.417968 0-29.726562 13.304687-29.726562 29.722656.050781 1.246094.171875 2.484375.371094 3.714844 1.832031-14.828126 14.414062-25.976563 29.355468-26.007813zm0 0" fill="#649454"/><path d="m168.507812 126.328125c14.941407.027344 27.523438 11.179687 29.34375 26.007813.203126-1.230469.332032-2.46875.378907-3.714844 0-16.414063-13.308594-29.722656-29.722657-29.722656-16.417968 0-29.726562 13.308593-29.726562 29.722656.046875 1.246094.167969 2.484375.371094 3.714844 1.832031-14.828126 14.414062-25.976563 29.355468-26.007813zm0 0" fill="#eb120d"/><path d="m262.628906 126.328125c14.941406.03125 27.523438 11.179687 29.351563 26.007813.203125-1.230469.328125-2.46875.371093-3.714844 0-16.414063-13.308593-29.722656-29.722656-29.722656-16.414062 0-29.722656 13.308593-29.722656 29.722656.046875 1.246094.171875 2.484375.378906 3.714844 1.820313-14.828126 14.402344-25.980469 29.34375-26.007813zm0 0" fill="#649454"/><path d="m356.757812 126.328125c14.941407.03125 27.523438 11.179687 29.351563 26.007813.199219-1.230469.324219-2.46875.371094-3.714844 0-16.414063-13.304688-29.722656-29.722657-29.722656-16.414062 0-29.722656 13.308593-29.722656 29.722656.046875 1.246094.171875 2.484375.371094 3.714844 1.828125-14.828126 14.410156-25.976563 29.351562-26.007813zm0 0" fill="#eb120d"/><path d="m89.238281 304.671875h-74.308593v-54.058594c-.019532-4.105469 3.289062-7.449219 7.390624-7.472656.511719 0 1.027344.050781 1.527344.152344l59.386719 11.886719c3.492187.6875 6.007813 3.753906 6 7.3125zm0 0" fill="#c2d197"/><path d="m14.929688 304.671875h74.308593v44.585937h-74.308593zm0 0" fill="#649454"/><path d="m22.359375 431-7.429687-81.742188h74.308593l-7.429687 81.742188" fill="#9cb16a"/><path d="m44.652344 274.949219c4.105468 0 7.429687-3.328125 7.429687-7.433594v-18.574219l-14.859375-2.972656v21.546875c0 4.105469 3.328125 7.433594 7.429688 7.433594zm0 0" fill="#9cb16a"/><path d="m89.238281 349.257812h-74.308593l.675781 7.433594zm0 0" fill="#075057"/><path d="m200.707031 393.84375h-44.589843l-14.859376-89.171875h74.308594zm0 0" fill="#9cb16a"/><path d="m148.6875 237.792969h59.449219c4.105469 0 7.429687 3.328125 7.429687 7.429687v59.449219h-74.308594v-59.449219c0-4.101562 3.324219-7.429687 7.429688-7.429687zm0 0" fill="#ff5e5b"/><path d="m156.117188 431v-37.15625h44.589843v37.15625" fill="#eb120d"/><path d="m156.117188 401.277344v-7.433594h44.589843" fill="#9e0c09"/><path d="m170.980469 282.378906c4.105469 0 7.429687-3.324218 7.429687-7.429687v-37.15625h-14.859375v37.15625c0 4.105469 3.324219 7.429687 7.429688 7.429687zm0 0" fill="#eb120d"/><path d="m252.722656 431v-89.171875h29.722656v89.171875" fill="#649454"/><path d="m252.722656 304.671875h29.722656v37.15625h-29.722656zm0 0" fill="#eb120d"/><path d="m282.445312 304.671875h-29.722656l11.257813-50.65625c.5-1.992187 2.519531-3.199219 4.507812-2.703125 1.332031.335938 2.367188 1.375 2.703125 2.703125zm0 0" fill="#c2d197"/><path d="m252.722656 349.257812v-7.429687h29.722656" fill="#075057"/><path d="m401.34375 341.828125h29.722656v89.171875h-29.722656zm0 0" fill="#eb120d"/><path d="m431.066406 341.828125h-29.722656l11.144531-83.816406c.261719-2.035157 2.121094-3.476563 4.15625-3.214844 1.679688.210937 3.003907 1.535156 3.21875 3.214844zm0 0" fill="#ff5e5b"/><path d="m401.34375 393.84375h29.722656v37.15625h-29.722656zm0 0" fill="#9cb16a"/><path d="m431.066406 393.84375h-29.722656v7.433594zm0 0" fill="#9e0c09"/><path d="m327.03125 245.222656h37.15625c4.105469 0 7.433594 3.328125 7.433594 7.433594v59.449219h-52.019532v-59.449219c0-4.105469 3.328126-7.433594 7.429688-7.433594zm0 0" fill="#c2d197"/><path d="m319.601562 312.105469h52.015626v44.585937h-52.015626zm0 0" fill="#649454"/><path d="m364.1875 431 7.433594-74.308594h-52.019532l7.429688 74.308594" fill="#eb120d"/><path d="m320.34375 364.121094 51.277344-7.429688h-52.019532zm0 0" fill="#9e0c09"/></svg>