<svg height="480pt" viewBox="0 -24 480 480" width="480pt" xmlns="http://www.w3.org/2000/svg"><path d="m40 96h208c8.835938 0 16 7.164062 16 16v168h-240v-168c0-8.835938 7.164062-16 16-16zm0 0" fill="#70dda8"/><path d="m96 64h96c8.835938 0 16 7.164062 16 16s-7.164062 16-16 16h-96c-8.835938 0-16-7.164062-16-16s7.164062-16 16-16zm0 0" fill="#fd412d"/><path d="m144 8c8.835938 0 16 7.164062 16 16v40h-32v-40c0-8.835938 7.164062-16 16-16zm0 0" fill="#faa108"/><path d="m227.664062 312h-33.128906l26.832032 100.136719c1.390624 5.621093 5.707031 10.050781 11.292968 11.585937 5.582032 1.535156 11.558594-.066406 15.625-4.1875 4.070313-4.121094 5.59375-10.117187 3.988282-15.679687zm0 0" fill="#faa108"/><path d="m60.34375 312-24.617188 91.855469c-2.285156 8.535156 2.78125 17.308593 11.316407 19.597656 8.539062 2.285156 17.3125-2.78125 19.597656-11.316406l26.832031-100.136719zm0 0" fill="#faa108"/><path d="m264 312h-240c-8.835938 0-16-7.164062-16-16s7.164062-16 16-16h240c8.835938 0 16 7.164062 16 16s-7.164062 16-16 16zm0 0" fill="#fd412d"/><path d="m56 224h48v56h-48zm0 0" fill="#faa108"/><path d="m145.742188 177.070312c10.792968-10.523437 27.476562-12.054687 40-3.671874 4.019531-4.910157 6.230468-11.054688 6.257812-17.398438.074219-12.953125-8.75-24.265625-21.332031-27.351562-12.578125-3.085938-25.632813 2.863281-31.5625 14.378906-5.929688 11.519531-3.183594 25.597656 6.636719 34.042968zm0 0" fill="#faa108"/><path d="m200 200c0 17.671875-14.328125 32-32 32s-32-14.328125-32-32 14.328125-32 32-32 32 14.328125 32 32zm0 0" fill="#fd412d"/><path d="m204 136c-5.84375.007812-11.539062 1.859375-16.273438 5.289062 6.347657 10.003907 5.5625 22.949219-1.949218 32.109376-2.839844-1.878907-5.964844-3.289063-9.25-4.183594v.082031c10.765625 2.988281 19.179687 11.402344 22.167968 22.167969 1.746094.347656 3.523438.527344 5.304688.535156 15.464844 0 28-12.535156 28-28s-12.535156-28-28-28zm0 0" fill="#faa108"/><path d="m368 48v32c0 17.671875 14.328125 32 32 32s32-14.328125 32-32v-32zm0 0" fill="#faa108"/><path d="m456 120h-112c-8.835938 0-16 7.164062-16 16v24h32v72h80v-72h32v-24c0-8.835938-7.164062-16-16-16zm0 0" fill="#70dda8"/><path d="m360 232h80v128h-80zm0 0" fill="#70dda8"/><path d="m400 392h-64v-16c0-8.835938 7.164062-16 16-16h48" fill="#faa108"/><path d="m384 360h56v32h-72v-16c0-8.835938 7.164062-16 16-16zm0 0" fill="#fd412d"/><path d="m328 192h-24c-8.835938 0-16 7.164062-16 16s7.164062 16 16 16h24c17.671875 0 32-14.328125 32-32v-32h-32zm0 0" fill="#faa108"/><path d="m440 160v72c0 8.835938 7.164062 16 16 16s16-7.164062 16-16v-72zm0 0" fill="#faa108"/><path d="m424 16h-76c-2.210938 0-4 1.789062-4 4v28c.027344 14.558594 9.898438 27.257812 24 30.871094v-30.871094h64v30.871094c15.601562-3.996094 25.785156-18.988282 23.75-34.964844-2.03125-15.980469-15.644531-27.941406-31.75-27.90625zm0 0" fill="#fd412d"/><g fill="#301993"><path d="m189.847656 131.046875c-10.164062-10.589844-25.75-13.929687-39.363281-8.4375s-22.515625 18.710937-22.484375 33.390625c0 4.417969 3.582031 8 8 8s8-3.582031 8-8c-.015625-8.914062 5.878906-16.757812 14.449219-19.222656 8.566406-2.460938 17.730469 1.058594 22.445312 8.621094l.042969.113281c.882812 1.453125 1.585938 3.011719 2.085938 4.640625.089843.28125.183593.542968.257812.800781 1.132812 3.917969.921875 8.109375-.601562 11.894531-19.019532-7.433594-40.578126.722656-49.910157 18.886719-9.332031 18.160156-3.414062 40.4375 13.703125 51.574219 17.117188 11.132812 39.882813 7.515625 52.703125-8.378906 12.820313-15.894532 11.539063-38.910157-2.96875-53.28125 3.53125-6.785157 4.640625-14.570313 3.144531-22.074219-.167968-.941407-.429687-1.839844-.671874-2.75-.175782-.65625-.273438-1.328125-.488282-1.96875 1.882813-.578125 3.839844-.867188 5.808594-.855469 11.046875 0 20 8.953125 20 20 0 4.417969 3.582031 8 8 8s8-3.582031 8-8c0-19.882812-16.117188-36-36-36-4.875.03125-9.695312 1.070312-14.152344 3.046875zm-21.847656 92.953125c-13.253906 0-24-10.746094-24-24s10.746094-24 24-24 24 10.746094 24 24-10.746094 24-24 24zm0 0"/><path d="m96 104h96c13.253906 0 24-10.746094 24-24s-10.746094-24-24-24h-24v-32c0-13.253906-10.746094-24-24-24s-24 10.746094-24 24v32h-24c-13.253906 0-24 10.746094-24 24s10.746094 24 24 24zm40-80c0-4.417969 3.582031-8 8-8s8 3.582031 8 8v32h-16zm-40 48h96c4.417969 0 8 3.582031 8 8s-3.582031 8-8 8h-96c-4.417969 0-8-3.582031-8-8s3.582031-8 8-8zm0 0"/><path d="m264 272h-32c-4.417969 0-8 3.582031-8 8s3.582031 8 8 8h32c4.417969 0 8 3.582031 8 8s-3.582031 8-8 8h-240c-4.417969 0-8-3.582031-8-8s3.582031-8 8-8h168c4.417969 0 8-3.582031 8-8s-3.582031-8-8-8h-80v-48c-.023438-3.554688-2.425781-6.65625-5.863281-7.566406l5.597656-22.496094c.769531-2.800781-.039063-5.796875-2.109375-7.828125-2.074219-2.03125-5.082031-2.785156-7.867188-1.960937-2.785156.820312-4.90625 3.085937-5.542968 5.914062l-6.460938 25.9375h-1.753906v-40c0-4.417969-3.582031-8-8-8s-8 3.582031-8 8v40h-1.753906l-6.484375-25.9375c-.640625-2.828125-2.757813-5.09375-5.542969-5.914062-2.785156-.824219-5.792969-.070313-7.867188 1.960937-2.070312 2.03125-2.878906 5.027344-2.113281 7.828125l5.601563 22.496094c-3.425782.921875-5.816406 4.019531-5.839844 7.566406v48h-24c-13.253906 0-24 10.746094-24 24s10.746094 24 24 24h25.910156l-21.910156 81.785156c-3.433594 12.8125 4.171875 25.980469 16.984375 29.414063 12.8125 3.433593 25.984375-4.171875 29.414063-16.984375l25.210937-94.214844h88.796875l25.25 94.214844c3.433594 12.8125 16.601562 20.417968 29.414062 16.984375 12.816407-3.433594 20.417969-16.601563 16.984376-29.414063l-21.964844-81.785156h25.910156c13.253906 0 24-10.746094 24-24s-10.746094-24-24-24zm-200-40h32v40h-32zm-5.089844 178.070312c-1.144531 4.269532-5.535156 6.800782-9.800781 5.652344-4.269531-1.144531-6.800781-5.535156-5.652344-9.800781l23.023438-85.921875h16.566406zm185.601563-4.148437c1.148437 4.265625-1.382813 8.65625-5.652344 9.800781-4.265625 1.148438-8.65625-1.382812-9.804687-5.652344l-24.09375-90.070312h16.558593zm0 0"/><path d="m392 368h48c4.417969 0 8-3.582031 8-8s-3.582031-8-8-8h-32v-72c0-4.417969-3.582031-8-8-8s-8 3.582031-8 8v72h-40c-13.253906 0-24 10.746094-24 24v16c0 4.417969 3.582031 8 8 8h104c4.417969 0 8-3.582031 8-8s-3.582031-8-8-8h-56v-8c0-4.417969 3.582031-8 8-8zm-48 16v-8c0-4.417969 3.582031-8 8-8h17.472656c-.949218 2.5625-1.445312 5.269531-1.472656 8v8zm0 0"/><path d="m472 168c4.417969 0 8-3.582031 8-8v-24c0-13.253906-10.746094-24-24-24h-32.246094c8.792969-6.546875 14.503906-16.429688 15.773438-27.320312 17.546875-7.347657 27.464844-26.0625 23.6875-44.707032-3.777344-18.644531-20.191406-32.03125-39.214844-31.972656h-76c-6.628906 0-12 5.371094-12 12v28c.039062 16.035156 9.679688 30.488281 24.472656 36.679688 1.269532 10.890624 6.980469 20.773437 15.773438 27.320312h-32.246094c-13.253906 0-24 10.746094-24 24v48h-16v-40c0-4.417969-3.582031-8-8-8s-8 3.582031-8 8v46.238281c-5.085938 4.503907-8 10.96875-8 17.761719s2.914062 13.257812 8 17.761719v22.238281c0 4.417969 3.582031 8 8 8s8-3.582031 8-8v-16h24c8.683594-.03125 17.113281-2.910156 24-8.199219v96.199219c0 4.417969 3.582031 8 8 8s8-3.582031 8-8v-80h64v80c0 4.417969 3.582031 8 8 8s8-3.582031 8-8v-65.472656c2.5625.949218 5.269531 1.445312 8 1.472656 13.253906 0 24-10.746094 24-24 0-4.417969-3.582031-8-8-8s-8 3.582031-8 8-3.582031 8-8 8-8-3.582031-8-8v-64zm-96-89.128906v-30.871094c0-4.417969-3.582031-8-8-8s-8 3.582031-8 8v17.785156c-5.085938-4.515625-7.996094-10.988281-8-17.785156v-24h72c9.941406-.03125 18.863281 6.089844 22.417969 15.371094 3.554687 9.28125 1 19.796875-6.417969 26.414062v-17.785156c0-4.417969-3.582031-8-8-8s-8 3.582031-8 8v32c0 13.253906-10.746094 24-24 24s-24-10.746094-24-24zm-48 137.128906h-24c-4.417969 0-8-3.582031-8-8s3.582031-8 8-8h24c4.417969 0 8-3.582031 8-8v-24h16v24c0 13.253906-10.746094 24-24 24zm112-64c-4.417969 0-8 3.582031-8 8v64h-64v-64c0-4.417969-3.582031-8-8-8h-24v-16c0-4.417969 3.582031-8 8-8h112c4.417969 0 8 3.582031 8 8v16zm0 0"/></g></svg>