<svg height="375pt" viewBox="0 0 375 375.51906" width="375pt" xmlns="http://www.w3.org/2000/svg"><path d="m50.390625 282.003906h275.722656c24.226563 0 43.867188 19.640625 43.867188 43.863282 0 24.226562-19.640625 43.867187-43.867188 43.867187h-275.722656c-24.226563 0-43.863281-19.640625-43.863281-43.867187 0-24.222657 19.636718-43.863282 43.863281-43.863282zm0 0" fill="#d4e3a5"/><path d="m301.050781 282.003906h25.066407c24.222656 0 43.863281 19.640625 43.863281 43.863282 0 24.226562-19.640625 43.867187-43.863281 43.867187h-25.066407zm0 0" fill="#67923d"/><path d="m238.382812 282.003906h62.664063v87.730469h-62.664063zm0 0" fill="#7d9b3d"/><path d="m175.71875 282.003906h62.664062v87.730469h-62.664062zm0 0" fill="#b6d554"/><path d="m113.054688 282.003906h62.664062v87.730469h-62.664062zm0 0" fill="#95cd8b"/><path d="m37.664062 283.894531 263.867188-79.988281c23.183594-7.027344 47.675781 6.070312 54.703125 29.253906s-6.070313 47.675782-29.253906 54.703125l-263.867188 79.988281c-23.183593 7.027344-47.675781-6.070312-54.703125-29.253906-7.027344-23.183594 6.070313-47.675781 29.253906-54.703125zm0 0" fill="#009245"/><path d="m277.542969 211.191406 23.988281-7.273437c23.183594-7.03125 47.675781 6.066406 54.707031 29.25 7.023438 23.183593-6.074219 47.675781-29.257812 54.699219l-23.984375 7.296874zm0 0" fill="#24420e"/><path d="m217.574219 229.351562 59.96875-18.175781 25.449219 83.957031-59.96875 18.179688zm0 0" fill="#006837"/><path d="m157.605469 247.53125 59.96875-18.175781 25.453125 83.957031-59.972656 18.179688zm0 0" fill="#009245"/><path d="m97.640625 265.707031 59.96875-18.179687 25.449219 83.957031-59.96875 18.179687zm0 0" fill="#8cc63f"/><path d="m25.140625 290.003906 225.449219-158.730468c19.808594-13.949219 47.171875-9.195313 61.121094 10.613281 13.945312 19.808593 9.195312 47.175781-10.617188 61.121093l-225.449219 158.730469c-19.808593 13.949219-47.171875 9.195313-61.121093-10.613281-13.945313-19.808594-9.191407-47.175781 10.617187-61.121094zm0 0" fill="#92d7e7"/><path d="m230.09375 145.703125 20.492188-14.414063c19.804687-13.945312 47.164062-9.203124 61.117187 10.597657 13.941406 19.808593 9.191406 47.171875-10.617187 61.117187l-20.496094 14.410156zm0 0" fill="#29abe2"/><path d="m178.855469 181.777344 51.238281-36.078125 50.507812 71.738281-51.238281 36.074219zm0 0" fill="#0071bc"/><path d="m127.617188 217.859375 51.242187-36.074219 50.503906 71.734375-51.238281 36.078125zm0 0" fill="#2e3192"/><path d="m76.378906 253.929688 51.238282-36.074219 50.507812 71.738281-51.242188 36.074219zm0 0" fill="#1b1464"/><path d="m15.160156 299.734375 164.269532-221.445313c14.433593-19.457031 41.90625-23.53125 61.363281-9.097656s23.53125 41.90625 9.097656 61.363282l-164.269531 221.449218c-14.433594 19.457032-41.90625 23.527344-61.363282 9.09375-19.457031-14.433594-23.53125-41.90625-9.097656-61.363281zm0 0" fill="#f7931e"/><path d="m164.496094 98.398438 14.933594-20.128907c14.433593-19.457031 41.902343-23.53125 61.359374-9.097656 19.460938 14.429687 23.535157 41.902344 9.101563 61.363281v.003906l-14.933594 20.125zm0 0" fill="#c1272d"/><path d="m127.171875 148.742188 37.335937-50.332032 70.464844 52.269532-37.335937 50.332031zm0 0" fill="#ed1c24"/><path d="m89.839844 199.074219 37.335937-50.332031 70.464844 52.269531-37.335937 50.332031zm0 0" fill="#f7931e"/><path d="m52.507812 249.40625 37.335938-50.332031 70.464844 52.269531-37.335938 50.332031zm0 0" fill="#f6967d"/><path d="m50.390625 350.933594c-13.820313 0-25.066406-11.242188-25.066406-25.066406 0-13.824219 11.246093-25.066407 25.066406-25.066407 13.824219 0 25.066406 11.242188 25.066406 25.066407 0 13.824218-11.246093 25.066406-25.066406 25.066406zm0-37.601563c-6.910156 0-12.53125 5.625-12.53125 12.535157 0 6.910156 5.621094 12.53125 12.53125 12.53125 6.914063 0 12.535156-5.621094 12.535156-12.53125 0-6.910157-5.621093-12.535157-12.535156-12.535157zm0 0"/><path d="m8.742188 312.109375 86.5-261.804687c7.601562-23 32.410156-35.488282 55.414062-27.886719 23 7.601562 35.488281 32.410156 27.886719 55.410156l-86.5 261.804687c-7.601563 23.003907-32.410157 35.488282-55.414063 27.886719-23.003906-7.597656-35.488281-32.40625-27.886718-55.410156zm0 0" fill="#f4ecce"/><path d="m50.390625 350.933594c-13.820313 0-25.066406-11.242188-25.066406-25.066406 0-13.824219 11.246093-25.066407 25.066406-25.066407 13.824219 0 25.066406 11.242188 25.066406 25.066407 0 13.824218-11.246093 25.066406-25.066406 25.066406zm0-37.601563c-6.910156 0-12.53125 5.625-12.53125 12.535157 0 6.910156 5.621094 12.53125 12.53125 12.53125 6.914063 0 12.535156-5.621094 12.535156-12.53125 0-6.910157-5.621093-12.535157-12.535156-12.535157zm0 0"/><path d="m87.363281 74.101562 7.863281-23.8125c7.605469-23 32.417969-35.480468 55.421876-27.875 0 0 .003906 0 .007812.003907 23 7.597656 35.488281 32.402343 27.890625 55.40625l-7.863281 23.8125zm0 0" fill="#e7685d"/><path d="m67.710938 133.601562 19.660156-59.5 83.296875 27.519532-19.65625 59.5zm0 0" fill="#fcd8d1"/><path d="m48.054688 193.101562 19.660156-59.5 83.300781 27.519532-19.660156 59.5zm0 0" fill="#8f6c56"/><path d="m28.394531 252.601562 19.660157-59.5 83.296874 27.523438-19.65625 59.5zm0 0" fill="#fcdd7c"/><path d="m50.390625 350.933594c-13.820313 0-25.066406-11.242188-25.066406-25.066406 0-13.824219 11.246093-25.066407 25.066406-25.066407 13.824219 0 25.066406 11.242188 25.066406 25.066407 0 13.824218-11.246093 25.066406-25.066406 25.066406zm0-37.601563c-6.910156 0-12.53125 5.625-12.53125 12.535157 0 6.910156 5.621094 12.53125 12.53125 12.53125 6.914063 0 12.535156-5.621094 12.535156-12.53125 0-6.910157-5.621093-12.535157-12.535156-12.535157zm0 0"/><path d="m50.390625 350.933594c-13.820313 0-25.066406-11.242188-25.066406-25.066406 0-13.824219 11.246093-25.066407 25.066406-25.066407 13.824219 0 25.066406 11.242188 25.066406 25.066407 0 13.824218-11.246093 25.066406-25.066406 25.066406zm0-37.601563c-6.910156 0-12.53125 5.625-12.53125 12.535157 0 6.910156 5.621094 12.53125 12.53125 12.53125 6.914063 0 12.535156-5.621094 12.535156-12.53125 0-6.910157-5.621093-12.535157-12.535156-12.535157zm0 0"/><path d="m50.390625 350.933594c-13.820313 0-25.066406-11.242188-25.066406-25.066406 0-13.824219 11.246093-25.066407 25.066406-25.066407 13.824219 0 25.066406 11.242188 25.066406 25.066407 0 13.824218-11.246093 25.066406-25.066406 25.066406zm0-37.601563c-6.910156 0-12.53125 5.625-12.53125 12.535157 0 6.910156 5.621094 12.53125 12.53125 12.53125 6.914063 0 12.535156-5.621094 12.535156-12.53125 0-6.910157-5.621093-12.535157-12.535156-12.535157zm0 0"/><path d="m50.390625 6.28125c24.226563 0 43.867187 19.636719 43.867187 43.863281v275.722657c0 24.226562-19.640624 43.867187-43.867187 43.867187s-43.863281-19.640625-43.863281-43.867187v-275.722657c0-24.226562 19.636718-43.863281 43.863281-43.863281zm0 0" fill="#f1dbcb"/><path d="m6.527344 75.210938v-25.066407c0-24.226562 19.636718-43.863281 43.863281-43.863281s43.867187 19.636719 43.867187 43.863281v25.066407zm0 0" fill="#b08874"/><path d="m6.527344 75.210938h87.730468v62.664062h-87.730468zm0 0" fill="#cea28b"/><path d="m6.527344 137.875h87.730468v62.664062h-87.730468zm0 0" fill="#e4b69d"/><path d="m6.527344 200.539062h87.730468v62.664063h-87.730468zm0 0" fill="#efc7b0"/><path d="m69.191406 325.867188c0 10.382812-8.417968 18.800781-18.800781 18.800781s-18.796875-8.417969-18.796875-18.800781c0-10.378907 8.414062-18.796876 18.796875-18.796876s18.800781 8.417969 18.800781 18.796876zm0 0" fill="#0378a3"/><path d="m50.390625 350.933594c13.84375 0 25.066406-11.222656 25.066406-25.066406s-11.222656-25.066407-25.066406-25.066407-25.066406 11.222657-25.066406 25.066407 11.222656 25.066406 25.066406 25.066406zm0-37.597656c6.921875 0 12.535156 5.609374 12.535156 12.53125 0 6.921874-5.613281 12.535156-12.535156 12.535156s-12.53125-5.613282-12.53125-12.535156c0-6.921876 5.609375-12.53125 12.53125-12.53125zm0 0"/><path d="m349.507812 281.539062c19.699219-19.421874 19.921876-51.136718.5-70.832031-8.785156-8.910156-20.589843-14.210937-33.085937-14.855469 10-14.230468 11.882813-32.640624 4.96875-48.601562l-.054687-.144531c-.582032-1.332031-1.253907-2.632813-1.949219-3.914063-.113281-.203125-.195313-.410156-.308594-.628906-11.257813-20.050781-34.734375-29.847656-56.90625-23.75 7.988281-26.46875-6.996094-54.402344-33.464844-62.386719-14.308593-4.320312-29.796875-2.019531-42.234375 6.273438-.578125-23.007813-16.773437-42.660157-39.246094-47.625l-.347656-.019531c-18.722656-4.039063-38.105468 2.984374-49.894531 18.078124-9.375-26.03125-38.078125-39.53125-64.105469-30.15625-19.886718 7.164063-33.136718 26.035157-33.121094 47.167969v275.722657c.035157 21.542968 13.816407 40.660156 34.242188 47.507812.0625 0 .097656.074219.164062.09375.0625.019531.1875.039062.273438.066406 2.257812.71875 4.558594 1.28125 6.894531 1.675782.511719.09375 1.019531.164062 1.535157.238281 2.257812.339843 4.535156.523437 6.816406.550781h275.929687c27.6875-.011719 50.125-22.464844 50.113281-50.152344-.007812-18.578125-10.289062-35.632812-26.71875-44.308594zm.734376-46.566406c6.019531 19.871094-5.199219 40.859375-25.066407 46.886719l-18 5.453125-20.21875-66.6875 14.359375-10.117188 2.03125-.625c19.871094-6.027343 40.863282 5.195313 46.894532 25.066407zm-337.449219-90.832031h75.195312v50.132813h-75.195312zm221.335937 18.175781 37.738282 53.59375-40.988282 28.828125-28.199218-40.050781 5.3125-7.167969zm-97.855468 63.414063 5.558593-16.820313 11.007813-33.316406 36.039062 26.71875-2.8125 3.761719-27.058594 36.46875zm58.535156-10.40625 25.816406 36.667969-40.988281 28.859374-16.292969-23.125zm-51.671875-50.214844-15.730469 47.625-26.882812-8.890625v-52.808594zm-25.457031 116.996094 10.929687-33.085938 3.554687-10.75 19.394532 14.382813-.902344 1.203125c-.164062.199219-.316406.410156-.453125.628906l-28.546875 38.425781-6.085938-4.511718zm10.335937 23.304687 15.34375-20.679687 12.15625-16.382813 13.894531 19.742188-40.988281 28.824218-4.386719-6.191406zm45.554687-192.476562 52.640626 39.054687-29.867188 40.257813-39.347656-29.1875 9.757812-29.527344zm-26.5 40.277344-46.546874-15.335938v-52.824219l62.238281 20.558594-13.65625 41.359375zm-46.546874 109.992187v-46.164063l22.914062 7.570313-.625 1.941406-10.753906 32.585938-4.324219 13.085937-7.210937-2.386718zm10.902343 37.71875 2.765625 2.050781-6.203125 8.363282zm4.746094 20.410156 1.980469 2.8125-8.511719 5.992188zm71.066406 2.335938-8.210937-27.058594 43.175781-30.398437 12.898437 42.566406c-.363281.199218-.707031.429687-1.023437.691406l-7.476563 2.269531zm45.746094-65.050781 43.167969-30.390626 19.011718 62.726563-47.976562 14.542969zm-144.996094-177.140626v50.132813h-75.195312v-50.132813zm-75.195312 125.328126h75.195312v50.132812h-75.195312zm87.730469 76.234374 3.265624 1.074219-3.265624 9.875zm4.8125 65.457032 8.941406-6.265625.992187 3.285156zm1.453124 12.660156v2.3125h-7.632812zm18.28125-26.550781 43.167969-30.394531 7.007813 23.101562-47.976563 14.535156zm181.519532-189.117188c.726562 1.039063 1.402344 2.113281 2.023437 3.222657.136719.230468.238281.480468.367188.71875.46875.878906.929687 1.761718 1.324219 2.664062.050781.113281.082031.226562.125.332031 2.875 6.765625 3.699218 14.222657 2.367187 21.453125-.40625 2.257813-1.019531 4.472656-1.828125 6.621094-.09375.246094-.214844.484375-.3125.726562-.808594 2.03125-1.792969 3.988282-2.9375 5.847657-.132812.207031-.289062.402343-.429688.628906-1.207031 1.875-2.582031 3.632813-4.109374 5.261719-.085938.09375-.195313.179687-.289063.277344-1.648437 1.71875-3.460937 3.277343-5.40625 4.652343l-15.371094 10.792969-40.105469-56.980469 10.453126-14.09375 1.753906-1.253906c16.988281-11.914063 40.417968-7.828125 52.375 9.128906zm-69.527344-71.265625c16.675781 12.371094 20.167969 35.917969 7.796875 52.59375v.003906l-11.199219 15.097657-55.976562-41.515625 5.507812-16.667969 1.253906-1.71875c12.390626-16.660156 35.929688-20.148437 52.617188-7.792969zm-66.585938-27.058594c1.667969 3.3125 2.84375 6.851563 3.484376 10.507813.417968 2.402344.597656 4.839844.539062 7.28125-.085938 3.707031-.71875 7.386719-1.882812 10.910156l-5.894532 17.84375-66.199218-21.863281v-17.542969l.664062-2.019531c.757812-2.257812 1.722656-4.4375 2.886719-6.515625.0625-.121094.121093-.25.1875-.371094 1.117187-1.929687 2.402343-3.757812 3.84375-5.457031.15625-.1875.292969-.394531.457031-.582031 1.453125-1.652344 3.050781-3.175781 4.773438-4.542969.191406-.144531.351562-.3125.539062-.457031 1.855469-1.433594 3.839844-2.691407 5.921875-3.761719 6.527344-3.34375 13.886719-4.699219 21.175781-3.902344h.304688c1.003906.117188 2.007812.304688 3.015625.511719.238281.050781.484375.070313.722656.125 1.242187.273437 2.46875.613281 3.675781 1.011719 9.484375 3.113281 17.328125 9.890625 21.785156 18.824218zm-157.683593 2.980469c0-20.765625 16.832031-37.597656 37.597656-37.597656s37.601563 16.832031 37.601563 37.597656v18.800781h-75.199219zm0 275.722657v-56.394532h75.195312v5.082032.425781 50.890625c-.007812 4.445312-.8125 8.855468-2.375 13.019531-.238281.628906-.480469 1.324219-.757812 1.960937-.273438.640626-.570313 1.210938-.871094 1.8125-.238281.476563-.46875.953126-.71875 1.417969-.394531.699219-.820313 1.378907-1.253906 2.046875-.207031.332032-.414063.671875-.628907.996094-.46875.683594-.976562 1.335938-1.492187 1.988281-.386719.492188-.792969.96875-1.203125 1.4375-.40625.472657-.789062.898438-1.203125 1.332031l-.625.625c-.171875.167969-.34375.324219-.519531.488282-.445313.425781-.902344.839844-1.367188 1.253906-.351562.300781-.695312.628906-1.050781.894531-.519531.421875-1.066406.808594-1.605469 1.207031l-.933594.625c-1.226562.828126-2.496093 1.582032-3.808593 2.261719-.371094.195313-.753907.371094-1.136719.550781l-.222656.101563c-1.148438.535156-2.324219 1.011719-3.523438 1.421875-.46875.164062-.933594.332031-1.410156.476562l-.269531.082032c-.53125.15625-1.078125.246094-1.609375.375-.882813.21875-1.765625.445312-2.664063.628906-.179687.03125-.363281.066406-.550781.09375l-.53125.082031-.289062.035157c-1.4375.195312-2.886719.308593-4.335938.335937-.300781 0-.628906 0-.898438 0-.800781 0-1.585937-.070313-2.367187-.121094-.484375-.039062-.964844-.042969-1.449219-.101562-.625-.066407-1.253906-.1875-1.878906-.285157-.628906-.101562-1.253906-.183593-1.882812-.320312-.46875-.101562-.925782-.246094-1.390626-.359375-.765624-.191406-1.527343-.386719-2.285156-.625-15.515625-5.011719-26.046875-19.4375-26.085937-35.742187zm106.53125 31.488281 5.570312-1.691407 44.558594-13.503906v21.308594h-50.128906zm62.664062-18.992188 2.886719-.875 47.242188-14.328125v40.308594h-50.128907zm62.664063-19 12.386718-3.757812 37.742188-11.4375v59.296875h-50.128906zm81.460937 44.105469h-18.796875v-63.097656l21.488282-6.519532c3.0625-.933593 6.03125-2.152343 8.867187-3.644531 19.734375 6.339844 30.589844 27.476563 24.25 47.207031-4.992187 15.550782-19.472656 26.085938-35.808594 26.054688zm0 0"/></svg>