<svg height="428pt" viewBox="-42 0 428 428.85897" width="428pt" xmlns="http://www.w3.org/2000/svg"><path d="m7.476562 13.945312h65.964844v408.003907h-65.964844zm0 0" fill="#ffcb5a"/><path d="m52.027344 35.046875h21.105468v14.070313h-21.105468zm0 0"/><path d="m52.027344 63.183594h21.105468v14.070312h-21.105468zm0 0"/><path d="m52.027344 91.324219h21.105468v14.070312h-21.105468zm0 0"/><path d="m52.027344 119.460938h21.105468v14.070312h-21.105468zm0 0"/><path d="m52.027344 147.601562h21.105468v14.066407h-21.105468zm0 0"/><path d="m52.027344 175.738281h21.105468v14.070313h-21.105468zm0 0"/><path d="m52.027344 203.875h21.105468v14.074219h-21.105468zm0 0"/><path d="m52.027344 232.019531h21.105468v14.070313h-21.105468zm0 0"/><path d="m52.027344 260.15625h21.105468v14.070312h-21.105468zm0 0"/><path d="m52.027344 288.296875h21.105468v14.066406h-21.105468zm0 0"/><path d="m52.027344 316.433594h21.105468v14.070312h-21.105468zm0 0"/><path d="m52.027344 344.570312h21.105468v14.070313h-21.105468zm0 0"/><path d="m52.027344 372.710938h21.105468v14.070312h-21.105468zm0 0"/><path d="m120.03125 77.253906h28.136719v309.523438h-28.136719zm0 0" fill="#003a86"/><path d="m120.03125 49.117188h28.136719v28.136718h-28.136719zm0 0" fill="#6f6f6f"/><path d="m134.101562 13.945312c7.769532 0 14.070313 6.296876 14.070313 14.066407v21.105469h-28.140625v-21.105469c0-7.769531 6.296875-14.066407 14.070312-14.066407zm0 0" fill="#bfbfbf"/><path d="m134.101562 421.949219 14.066407-35.171875h-28.136719zm0 0" fill="#bfbfbf"/><path d="m239.617188 421.949219h-21.101563l-14.070313-239.175781 7.035157-84.414063h28.136719l7.035156 84.414063zm0 0" fill="#ffa439"/><path d="m337.398438 64.59375c0 9.15625-1.742188 18.226562-5.136719 26.730469h-28.136719c-9.699219-12.808594-10.910156-30.136719-3.09375-44.175781l2.53125-4.503907c3.753906-5.074219 6.894531-10.578125 9.355469-16.390625l5.277343-12.308594 7.105469 10.691407c7.898438 11.828125 12.109375 25.734375 12.097657 39.957031zm0 0" fill="#ffcb5a"/><path d="m331.210938 133.53125-7.175782 288.417969h-14.070312l-5.066406-288.417969zm0 0" fill="#a55f39"/><path d="m332.265625 91.324219-1.054687 42.207031h-26.3125l-.773438-42.207031zm0 0" fill="#8a4325"/><path d="m311.132812 63.1875h14.070313v28.136719h-14.070313zm0 0" fill="#e0af41"/><path d="m232.585938 15.351562v28.679688c6.726562 3.886719 9.035156 12.492188 5.148437 19.21875-3.886719 6.730469-12.488281 9.035156-19.21875 5.152344-6.730469-3.886719-9.035156-12.492188-5.148437-19.222656 1.234374-2.136719 3.007812-3.914063 5.148437-5.148438v-28.679688l-28.140625 33.765626 21.105469 49.242187h28.136719l21.105468-49.242187zm0 0" fill="#bfbfbf"/><path d="m73.441406 6.910156h-65.964844c-3.882812 0-7.03125 3.148438-7.03125 7.035156v408.003907c0 3.886719 3.148438 7.035156 7.03125 7.035156h65.964844c3.886719 0 7.035156-3.148437 7.035156-7.035156v-408.003907c0-3.886718-3.152343-7.035156-7.035156-7.035156zm-7.035156 28.136719h-14.378906v14.070313h14.378906v14.070312h-14.378906v14.066406h14.378906v14.070313h-14.378906v14.070312h14.378906v14.070313h-14.378906v14.070312h14.378906v14.070313h-14.378906v14.066406h14.378906v14.070313h-14.378906v14.070312h14.378906v14.070312h-14.378906v14.070313h14.378906v14.070313h-14.378906v14.066406h14.378906v14.070312h-14.378906v14.070313h14.378906v14.070312h-14.378906v14.070313h14.378906v14.070312h-14.378906v14.066406h14.378906v14.070313h-14.378906v14.070313h14.378906v14.070312h-14.378906v14.070312h14.378906v28.136719h-51.894531v-393.949219h51.894531zm0 0"/><path d="m127.566406 424.566406c1.4375 3.609375 5.527344 5.371094 9.136719 3.933594 1.792969-.71875 3.21875-2.136719 3.929687-3.933594l14.070313-35.171875c.28125-.75.433594-1.546875.445313-2.351562 0-.097657.054687-.175781.054687-.265625v-358.765625c0-11.652344-9.449219-21.101563-21.105469-21.101563-11.652344 0-21.101562 9.449219-21.101562 21.101563v358.765625c0 .089844.046875.167968.054687.265625.011719.804687.160157 1.597656.445313 2.351562zm6.535156-21.554687-3.679687-9.199219h7.359375zm-7.035156-375c0-3.882813 3.148438-7.03125 7.03125-7.03125 3.886719 0 7.035156 3.148437 7.035156 7.03125v14.070312h-14.070312v-14.070312zm0 28.140625h14.066406v14.070312h-14.066406zm0 28.136718h14.066406v295.453126h-14.066406zm0 0"/><path d="m309.964844 428.984375h14.070312c3.816406.003906 6.9375-3.042969 7.035156-6.855469l8.164063-329.621094c9.035156-23.824218 6.019531-50.542968-8.09375-71.753906l-7.105469-10.710937c-2.15625-3.234375-6.527344-4.105469-9.757812-1.949219-1.144532.765625-2.039063 1.847656-2.574219 3.117188l-5.257813 12.332031c-2.242187 5.296875-5.117187 10.300781-8.566406 14.902343-.191406.253907-.363281.515626-.519531.789063l-2.488281 4.460937c-8.710938 15.664063-7.863282 34.894532 2.199218 49.726563l5.859376 328.65625c.070312 3.835937 3.199218 6.90625 7.035156 6.90625zm7.203125-14.070313h-.292969l-4.867188-274.347656h11.957032zm7.152343-288.417968h-12.5625l-.5-28.136719h13.765626zm-17.167968-75.9375 2.265625-4.058594c4.011719-5.410156 7.363281-11.28125 9.988281-17.488281l.125-.292969c10.863281 16.394531 13.707031 36.832031 7.738281 55.570312h-2.109375v-21.101562h-14.070312v21.101562h-3.328125c-6.265625-10.3125-6.5-23.195312-.609375-33.730468zm0 0"/><path d="m266.125 44.613281-35.171875-42.207031c-2.683594-2.984375-7.277344-3.226562-10.261719-.542969-.191406.171875-.371094.351563-.542968.542969l-35.175782 42.207031c-1.691406 2.035157-2.101562 4.84375-1.0625 7.273438l20.402344 47.632812-6.902344 82.671875c-.019531.332032-.019531.664063 0 1l14.070313 239.175782c.21875 3.71875 3.304687 6.625 7.035156 6.617187h21.101563c3.808593.003906 6.925781-3.023437 7.035156-6.832031l7.035156-239.171875c0-.261719 0-.523438 0-.789063l-6.894531-82.671875 20.402343-47.632812c1.039063-2.429688.625-5.242188-1.070312-7.273438zm-33.335938 370.300781h-7.640624l-13.667969-232.054687 6.472656-77.464844h15.195313l6.46875 77.570313zm2.195313-323.589843h-18.867187l-17.585938-41.019531 19.984375-23.964844v17.691406c-6.730469 3.886719-9.035156 12.488281-5.148437 19.21875 3.882812 6.730469 12.488281 9.035156 19.21875 5.148438 6.726562-3.882813 9.035156-12.488282 5.148437-19.21875-1.234375-2.136719-3.011719-3.914063-5.148437-5.148438v-17.691406l19.96875 23.964844zm0 0"/></svg>