<svg height="421pt" viewBox="-4 0 421 421.9432" width="421pt" xmlns="http://www.w3.org/2000/svg"><path d="m183.335938 351.667969v1.652343c.125 14.5-11.53125 26.355469-26.027344 26.480469-.046875 0-.09375 0-.144532 0h-1.960937c-81.558594-.03125-147.667969-66.136719-147.699219-147.695312v-7.035157c0-97.109374 78.722656-175.828124 175.832032-175.828124 77.6875 0 140.664062 62.976562 140.664062 140.664062 0 54.378906-44.082031 98.464844-98.464844 98.464844h-63.300781c-11.652344 0-21.097656 9.445312-21.097656 21.097656v.632812c-.003907 11.300782 9.152343 20.464844 20.453125 20.46875h.019531.625c11.65625-.003906 21.101563 9.445313 21.101563 21.097657zm0 0" fill="#ebebeb"/><path d="m113.003906 305.953125c0 13.59375-11.023437 24.613281-24.617187 24.613281s-24.617188-11.019531-24.617188-24.613281c0-13.597656 11.023438-24.617187 24.617188-24.617187s24.617187 11.019531 24.617187 24.617187zm0 0" fill="#168de2"/><path d="m91.902344 232.101562c0 15.539063-12.59375 28.132813-28.132813 28.132813-15.535156 0-28.132812-12.59375-28.132812-28.132813 0-15.535156 12.597656-28.132812 28.132812-28.132812 15.539063 0 28.132813 12.597656 28.132813 28.132812zm0 0" fill="#03aa6f"/><path d="m134.101562 151.222656c0 17.476563-14.167968 31.648438-31.648437 31.648438s-31.648437-14.171875-31.648437-31.648438c0-17.480468 14.167968-31.652344 31.648437-31.652344s31.648437 14.171876 31.648437 31.652344zm0 0" fill="#ffcb5a"/><path d="m232.566406 119.570312c0 19.421876-15.742187 35.167969-35.164062 35.167969s-35.164063-15.746093-35.164063-35.167969c0-19.417968 15.742188-35.164062 35.164063-35.164062s35.164062 15.746094 35.164062 35.164062zm0 0" fill="#d95354"/><path d="m366.199219 414.96875-14.066407-246.164062 7.03125-63.300782h35.167969l7.035157 63.300782-14.070313 246.164062zm0 0" fill="#8a4325"/><path d="m359.164062 105.503906-5.703124-14.253906c-4.964844-12.417969-1.222657-26.621094 9.222656-34.976562 10.441406-8.355469 14.1875-22.558594 9.21875-34.976563l-5.703125-14.257813 17.105469 13.6875c11.632812 9.304688 19.421874 22.582032 21.867187 37.277344 2.089844 12.59375.144531 25.53125-5.566406 36.953125l-5.273438 10.546875zm0 0" fill="#d6cec8"/><path d="m345.097656 98.472656h63.300782v14.066406h-63.300782zm0 0" fill="#6f3114"/><path d="m155.203125 386.835938h1.984375c8.835938.023437 17.3125-3.507813 23.511719-9.804688 6.242187-6.316406 9.71875-14.851562 9.667969-23.730469v-1.632812c-.101563-15.640625-12.867188-28.238281-28.507813-28.136719-.089844.003906-.183594.003906-.277344.003906-3.558593.011719-6.972656-1.402344-9.480469-3.929687-2.648437-2.695313-4.070312-6.359375-3.933593-10.136719 0-7.769531 6.296875-14.066406 14.066406-14.066406h63.300781c58.238282-.066406 105.433594-47.261719 105.496094-105.496094-.089844-81.535156-66.164062-147.605469-147.695312-147.699219-100.945313.113281-182.75 81.917969-182.863282 182.863281v7.03125c.128906 85.402344 69.328125 154.601563 154.730469 154.734376zm-140.664063-161.765626c.109376-93.179687 75.617188-168.6875 168.796876-168.796874 73.769531.082031 133.550781 59.859374 133.628906 133.628906-.054688 50.472656-40.957032 91.375-91.429688 91.433594h-63.300781c-15.628906.089843-28.226563 12.835937-28.136719 28.464843.003906.101563.003906.199219.003906.300781-.019531 7.296876 2.882813 14.296876 8.058594 19.4375 5.320313 5.300782 12.566406 8.210938 20.074219 8.0625 7.769531 0 14.066406 6.296876 14.066406 14.066407v1.640625c.039063 5.179687-1.984375 10.164062-5.625 13.855468-3.566406 3.617188-8.4375 5.648438-13.519531 5.625h-1.953125c-77.644531-.125-140.550781-63.042968-140.664063-140.6875zm0 0"/><path d="m88.386719 274.300781c-17.480469 0-31.648438 14.171875-31.648438 31.652344 0 17.476563 14.167969 31.648437 31.648438 31.648437s31.648437-14.171874 31.648437-31.648437c-.019531-17.472656-14.175781-31.632813-31.648437-31.652344zm0 49.234375c-9.710938 0-17.582031-7.871094-17.582031-17.582031s7.871093-17.585937 17.582031-17.585937c9.710937 0 17.582031 7.875 17.582031 17.585937s-7.871094 17.582031-17.582031 17.582031zm0 0"/><path d="m98.9375 232.101562c0-19.421874-15.746094-35.164062-35.164062-35.164062-19.421876 0-35.167969 15.742188-35.167969 35.164062 0 19.421876 15.746093 35.167969 35.167969 35.167969 19.410156-.023437 35.140624-15.753906 35.164062-35.167969zm-56.265625 0c0-11.652343 9.445313-21.097656 21.097656-21.097656 11.65625 0 21.101563 9.445313 21.101563 21.097656 0 11.652344-9.445313 21.101563-21.101563 21.101563-11.652343 0-21.097656-9.445313-21.097656-21.101563zm0 0"/><path d="m102.453125 189.90625c21.363281 0 38.683594-17.320312 38.683594-38.683594 0-21.367187-17.320313-38.683594-38.683594-38.683594s-38.683594 17.316407-38.683594 38.683594c.027344 21.351563 17.332031 38.65625 38.683594 38.683594zm0-63.300781c13.59375 0 24.617187 11.019531 24.617187 24.617187 0 13.59375-11.023437 24.613282-24.617187 24.613282s-24.617187-11.019532-24.617187-24.613282c0-13.597656 11.023437-24.617187 24.617187-24.617187zm0 0"/><path d="m197.402344 161.773438c23.304687 0 42.199218-18.894532 42.199218-42.203126 0-23.304687-18.894531-42.199218-42.199218-42.199218-23.304688 0-42.199219 18.894531-42.199219 42.199218.023437 23.296876 18.902344 42.175782 42.199219 42.203126zm0-70.335938c15.535156 0 28.132812 12.597656 28.132812 28.132812 0 15.539063-12.597656 28.132813-28.132812 28.132813s-28.132813-12.59375-28.132813-28.132813c0-15.535156 12.59375-28.132812 28.132813-28.132812zm0 0"/><path d="m412.105469 56.820312c-2.726563-16.394531-11.417969-31.207031-24.398438-41.585937l-17.113281-13.6875c-3.027344-2.429687-7.457031-1.945313-9.886719 1.085937-1.589843 1.980469-1.984375 4.660157-1.042969 7.015626l5.703126 14.269531c3.855468 9.535156.972656 20.472656-7.082032 26.867187-12.925781 10.25-17.546875 27.792969-11.351562 43.078125l1.84375 4.613281h-3.679688v14.070313h6.210938l-6.167969 55.492187c-.035156.390626-.035156.78125 0 1.171876l14.066406 246.164062c.214844 3.707031 3.277344 6.609375 6.992188 6.625h21.097656c3.734375.003906 6.824219-2.90625 7.035156-6.632812l14.066407-246.164063c.035156-.390625.035156-.78125 0-1.171875l-6.210938-55.492188h6.210938v-14.066406h-2.6875l.191406-.378906c6.402344-12.75 8.574218-27.207031 6.203125-41.273438zm-31.445313 351.113282h-7.820312l-13.675782-238.941406 6.332032-56.453126h22.503906l6.332031 56.453126zm12.660156-316.128906-3.335937 6.667968h-26.019531l-3.933594-9.847656c-3.851562-9.535156-.96875-20.46875 7.082031-26.867188 10.214844-8.117187 15.417969-21 13.714844-33.933593 18.226563 16.015625 23.355469 42.308593 12.484375 64.003906zm0 0"/></svg>