<svg height="421pt" viewBox="0 -16 421.9462 421" width="421pt" xmlns="http://www.w3.org/2000/svg"><path d="m7.03125 91.90625 246.164062-14.066406 63.300782 7.035156v35.164062l-63.300782 7.03125-246.164062-14.0625zm0 0" fill="#8a4325"/><path d="m316.496094 84.875 14.253906-5.707031c12.417969-4.964844 26.621094-1.21875 34.976562 9.222656 8.355469 10.441406 22.558594 14.1875 34.976563 9.21875l14.257813-5.703125-13.6875 17.105469c-9.304688 11.632812-22.582032 19.421875-37.277344 21.867187-12.59375 2.089844-25.53125.144532-36.953125-5.566406l-10.550781-5.273438v-35.164062zm0 0" fill="#ffcb5a"/><path d="m309.460938 70.808594h14.066406v63.296875h-14.066406zm0 0" fill="#6b321b"/><path d="m295.394531 120.039062h-21.097656l-35.167969 7.03125v-119.5625h-28.132812v7.035157h-28.132813v7.03125h-28.132812v7.03125h-28.132813v119.566406l21.101563 21.101563v219.785156h77.363281v-219.785156l14.066406-7.035157 35.167969-14.066406h35.164063v-14.066406c0-7.769531-6.296876-14.066407-14.066407-14.066407zm0 0" fill="#f5ceb7"/><g fill="#e0bca7"><path d="m218.03125 63.773438h-14.066406v-42.199219h-14.070313v42.199219h-14.066406v-49.230469c0-3.886719 3.148437-7.035157 7.035156-7.035157h28.132813c3.882812 0 7.03125 3.148438 7.03125 7.035157v49.230469zm0 0"/><path d="m189.898438 63.773438h-14.066407v-35.167969h-14.070312v35.167969h-14.066407v-42.199219c0-3.882813 3.148438-7.03125 7.035157-7.03125h28.132812c3.882813 0 7.03125 3.148437 7.03125 7.03125v42.199219zm0 0"/><path d="m218.03125 63.773438h-14.066406v-56.265626c0-3.882812 3.148437-7.03125 7.03125-7.03125h28.132812v14.066407h-21.101562v49.230469zm0 0"/><path d="m154.730469 380.269531h-14.066407v-208.085937l-19.039062-19.039063c-1.320312-1.316406-2.058594-3.105469-2.058594-4.972656v-119.566406c0-3.882813 3.148438-7.03125 7.03125-7.03125h28.132813c3.882812 0 7.03125 3.148437 7.03125 7.03125v42.203125h-14.066407v-35.167969h-14.066406v109.621094l19.039063 19.039062c1.320312 1.316407 2.0625 3.105469 2.0625 4.972657zm0 0"/><path d="m316.496094 148.171875h-14.066406v-14.066406c0-3.886719-3.148438-7.035157-7.035157-7.035157h-20.394531l-34.464844 6.894532-2.8125-13.785156 35.164063-7.03125c.464843-.09375.9375-.140626 1.40625-.140626h21.101562c11.652344 0 21.097657 9.445313 21.097657 21.097657v14.066406zm0 0"/></g><path d="m412.351562 85.371094-14.265624 5.707031c-9.53125 3.871094-20.480469.988281-26.863282-7.085937-10.25-12.921876-27.792968-17.542969-43.082031-11.351563l-4.613281 1.84375v-3.679687h-14.066406v6.210937l-55.492188-6.167969c-.390625-.035156-.785156-.035156-1.175781 0l-6.628907.351563v-63.691407c0-3.882812-3.148437-7.03125-7.035156-7.03125h-28.132812c-3.882813 0-7.03125 3.148438-7.03125 7.03125h-21.101563c-3.882812 0-7.03125 3.148438-7.03125 7.035157h-21.101562c-3.882813 0-7.03125 3.148437-7.03125 7.03125h-21.101563c-3.882812 0-7.03125 3.148437-7.03125 7.03125v49.824219l-112.933594 6.445312c-3.726562.210938-6.6406245 3.300781-6.632812 7.03125v21.101562c-.0078125 3.730469 2.90625 6.820313 6.632812 7.03125l112.929688 6.441407v21.691406c0 1.867187.742188 3.65625 2.0625 4.972656l19.039062 19.039063v215.117187h14.066407v-218.027343c0-1.867188-.742188-3.65625-2.0625-4.972657l-19.039063-19.039062v-109.621094h14.070313v35.167969h14.066406v-42.203125h14.066406v35.167969h14.066407v-42.199219h14.066406v42.199219h14.066406v-49.230469h14.066406v143.347656l-10.175781 5.085937c-2.382813 1.191407-3.890625 3.628907-3.890625 6.296876v218.027343h14.066406v-213.683593l9.917969-4.921876 33.632813-13.492187h33.816406c3.882812 0 7.03125-3.148437 7.03125-7.03125v-14.066406h7.035156v-2.6875l.378906.191406c9.335938 4.683594 19.636719 7.128906 30.082032 7.132813 3.75-.003907 7.492187-.316407 11.1875-.929688 16.398437-2.726562 31.207031-11.414062 41.589843-24.398438l13.683594-17.113281c2.433594-3.027343 1.945313-7.453125-1.082031-9.886719-1.984375-1.585937-4.664063-1.984374-7.019532-1.042968zm-292.785156 27.023437-105.5-6.027343v-7.820313l105.5-6.03125zm182.863282 28.746094h-28.132813c-.894531-.003906-1.78125.167969-2.609375.496094l-25.523438 10.214843v-18.140624l6.628907.382812.402343.011719c.257813 0 .515626-.011719.773438-.042969l46.109375-5.117188c1.484375 1.304688 2.339844 3.183594 2.351563 5.160157zm7.03125-27.429687-6.511719.703124c-2.410157-.933593-4.972657-1.410156-7.554688-1.40625h-21.101562c-.46875 0-.941407.046876-1.40625.140626l-26.726563 5.34375v-33.203126l6.84375-.414062 56.457032 6.328125zm53.402343 10.203124c-11.136719 1.867188-22.574219.140626-32.667969-4.921874l-6.667968-3.300782v-26.058594l9.847656-3.929687c9.53125-3.878906 20.484375-.992187 26.863281 7.082031 8.117188 10.226563 21 15.445313 33.945313 13.75-8.121094 9.242188-19.183594 15.390625-31.320313 17.40625zm0 0"/></svg>