<svg height="512pt" viewBox="-37 0 512 512.00166" width="512pt" xmlns="http://www.w3.org/2000/svg"><path d="m93.363281 456.601562c-8.007812 14.644532-2.859375 33.003907 11.59375 41.351563 14.457031 8.34375 32.929688 3.621094 41.609375-10.636719l72.988282-119.925781-40.769532-66.980469zm0 0" fill="#a87c4f"/><path d="m239.742188 189.183594 29.527343-54.214844-49.714843 90.898438 40.765624 74.542968 76.835938-126.25-32.1875 52.683594zm0 0" fill="#a87c4f"/><path d="m239.742188 189.183594 65.226562 37.660156 32.1875-52.683594-67.886719-39.191406zm0 0" fill="#00bdf2"/><path d="m426.410156 78.144531c-23.433594-43.027343-68.976562-69.320312-117.957031-68.101562-10.660156.261719-19.621094 8.085937-21.316406 18.613281l-17.210938 106.6875 67.230469 38.816406 83.789062-68.246094c8.269532-6.734374 10.566407-18.402343 5.464844-27.769531zm0 0" fill="#e4e5e8"/><path d="m169.839844 134.96875 29.527344 54.214844-65.226563 37.660156-32.1875-52.679688 76.835937 126.246094 40.765626 66.980469 72.988281 119.925781c8.679687 14.257813 27.152343 18.980469 41.609375 10.636719 14.453125-8.347656 19.601562-26.707031 11.59375-41.351563l-85.425782-156.191406-40.765624-74.542968zm0 0" fill="#fbb868"/><path d="m199.367188 189.183594-29.527344-54.214844-67.886719 39.191406 32.1875 52.683594zm0 0" fill="#f451a3"/><path d="m151.976562 28.660156c-1.699218-10.527344-10.660156-18.351562-21.320312-18.617187-48.980469-1.21875-94.523438 25.074219-117.957031 68.101562-5.101563 9.367188-2.804688 21.035157 5.464843 27.769531l83.789063 68.246094 67.230469-38.816406zm0 0" fill="#e4e5e8"/><path d="m435.195312 73.359375c-25.351562-46.539063-74.015624-74.621094-126.992187-73.3164062-15.464844.3867192-28.480469 11.7500002-30.941406 27.0234372l-16.578125 102.773438c-.066406.109375-.128906.21875-.1875.328125l-40.941406 74.855469-40.9375-74.855469c-.0625-.109375-.125-.21875-.191407-.328125l-16.578125-102.773438c-2.460937-15.273437-15.476562-26.636718-30.941406-27.0234372-52.996094-1.2968748-101.640625 26.7773432-126.992188 73.3203122-7.398437 13.585938-4.0625 30.539063 7.933594 40.308594l82.453125 67.160156 72.941407 119.84375-82.652344 151.128907c-10.527344 19.25-3.632813 43.835937 15.367187 54.808593 6.324219 3.652344 13.285157 5.386719 20.175781 5.386719 13.816407 0 27.367188-6.976562 34.976563-19.480469l64.445313-105.890625 64.445312 105.890625c7.613281 12.507813 21.15625 19.484375 34.976562 19.480469 6.890626 0 13.851563-1.734375 20.175782-5.386719 19.003906-10.96875 25.898437-35.558593 15.367187-54.808593l-82.652343-151.128907 72.941406-119.84375 82.457031-67.160156c11.992187-9.773437 15.328125-26.722656 7.929687-40.3125zm-162.046874 75.394531 50.128906 28.941406-21.757813 35.605469-48.328125-27.902343zm-157.316407 28.945313 16.183594-9.34375 33.945313-19.597657 19.957031 36.644532-48.328125 27.902344zm-91.355469-79.539063c-4.53125-3.691406-5.792968-10.097656-2.996093-15.230468.816406-1.5 1.660156-2.972657 2.535156-4.429688l10.652344 8.136719c1.8125 1.386719 3.945312 2.054687 6.0625 2.054687 3.011719 0 5.988281-1.355468 7.957031-3.929687 3.351562-4.390625 2.511719-10.667969-1.878906-14.019531l-11.128906-8.5c7.390624-8.683594 15.910156-16.199219 25.277343-22.382813l6.34375 10.988281c1.855469 3.210938 5.214844 5.003906 8.671875 5.003906 1.695313 0 3.417969-.433593 4.992188-1.34375 4.785156-2.757812 6.421875-8.875 3.660156-13.660156l-6.105469-10.578125c8.539063-3.773437 17.550781-6.5625 26.875-8.273437l1.792969 13.886718c.652344 5.042969 4.957031 8.71875 9.90625 8.71875.429688 0 .863281-.027343 1.296875-.082031 5.476563-.710937 9.34375-5.726562 8.636719-11.203125l-1.71875-13.296875c.675781-.011719 1.359375-.015625 2.039062-.015625 1.015625 0 2.039063.011719 3.0625.039063 5.84375.144531 10.761719 4.4375 11.691406 10.210937l16.109376 99.878906-25.589844 14.773438-29.699219 17.148438-78.445313-63.894532c.003907 0 .003907 0 0 0zm183.371094 269.230469-69.824218 114.726563c-5.804688 9.539062-18.394532 12.753906-28.0625 7.171874-9.667969-5.582031-13.179688-18.09375-7.820313-27.890624l77.109375-140.992188 13.273438 21.804688zm121.300782 121.898437c-9.667969 5.585938-22.257813 2.367188-28.0625-7.171874l-75.820313-124.582032-1.328125-2.183594-18.515625-30.421874-57.507813-94.492188 47.683594-27.53125 15.179688 27.753906v.003906l1.105468 2.019532c.179688.332031.378907.648437.589844.953125 2.082032 2.96875 5.5625 4.511719 9.035156 4.214843 1.34375-.113281 2.6875-.5 3.949219-1.191406.070313-.039062.140625-.078125.210938-.121094.011719-.003906.023437-.011718.035156-.019531.058594-.03125.117187-.066406.171875-.101562.015625-.011719.03125-.019531.042969-.027344.066406-.039063.132812-.082031.195312-.121094 0-.003906.003907-.003906.003907-.003906.070312-.042969.136718-.089844.203124-.136719.007813-.003906.019532-.011718.027344-.019531.054688-.035156.109375-.074219.164063-.113281.015625-.011719.03125-.023438.046875-.035156.050781-.039063.101562-.074219.152344-.113282.011718-.007812.023437-.019531.035156-.027344.0625-.046874.125-.09375.1875-.144531.003906-.003906.007812-.007812.011718-.011719.054688-.042968.105469-.085937.160157-.128906.015625-.015625.035156-.03125.054687-.046875.039063-.035156.082032-.070312.121094-.109375.015625-.011718.035156-.027344.050781-.042968.050781-.046876.105469-.09375.15625-.140626.003907-.003906.007813-.007812.011719-.011718.054688-.050782.105469-.101563.160156-.152344.015625-.019531.035156-.035156.050782-.050781.035156-.035157.070312-.070313.105468-.109375l.058594-.058594c.035156-.039062.070312-.074219.109375-.113281.011719-.019531.027344-.035157.042969-.050781.046875-.050782.09375-.105469.140625-.15625.019531-.019532.035156-.039063.054687-.058594.027344-.035156.058594-.070313.089844-.105469.019531-.027344.039062-.050781.058594-.074219.027344-.035156.054687-.066406.082031-.101562.019531-.023438.039063-.046875.058594-.070313.039062-.050781.082031-.105469.117187-.15625.019532-.023437.039063-.046875.058594-.074219.023438-.03125.050781-.066406.074219-.101562.019531-.03125.042969-.0625.0625-.089844.023437-.03125.042969-.058594.0625-.085937.019531-.03125.042969-.0625.0625-.09375s.039062-.0625.0625-.089844c.035156-.054687.070312-.109375.101562-.164063.019531-.027343.035157-.054687.054688-.085937.023437-.035156.042969-.070313.0625-.105469.015625-.023437.03125-.046875.046875-.074218.023437-.035157.042968-.074219.0625-.109376.015625-.023437.027344-.046874.039062-.066406.074219-.132812.144532-.265625.210938-.398437.011718-.023438.023437-.046875.03125-.066407.023437-.042968.039062-.082031.0625-.121093.007812-.023438.019531-.042969.027344-.066407.019531-.039062.039062-.082031.058593-.125.007813-.011718.011719-.023437.015625-.03125.039063-.089843.078125-.183593.117188-.277343.007812-.015625.011718-.03125.019531-.046875.015625-.042969.035156-.085938.050781-.128906.007813-.019532.015625-.042969.023438-.0625.019531-.046876.035156-.089844.054687-.136719.003907-.011719.007813-.023438.011719-.035157.054688-.152343.105469-.304687.152344-.460937.007812-.019531.015625-.039063.019531-.0625.011719-.042969.027344-.085937.039063-.132813.007812-.019531.011718-.039062.015624-.058593.042969-.148438.082032-.300781.113282-.449219.007812-.023438.011718-.042969.015625-.066406.011719-.046875.019531-.089844.03125-.136719.003906-.019531.007812-.039063.011719-.0625.011718-.046875.019531-.09375.027343-.140625.003907-.011719.003907-.023438.007813-.035156.015625-.097656.03125-.195313.046875-.292969.003906-.015625.007812-.035156.007812-.050781.007813-.046875.011719-.089844.019531-.132813.003907-.027343.007813-.054687.011719-.082031.003907-.042969.007813-.085938.015625-.125 0-.027344.003906-.054688.007813-.082031.007812-.085938.015625-.175781.023437-.265625 0-.015625.003906-.03125.003906-.042969.003907-.042969.007813-.085937.007813-.128906.003906-.027344.003906-.058594.003906-.085938.003907-.042969.003907-.082031.007813-.125 0-.027343 0-.058593.003906-.085937 0-.042969 0-.085938 0-.128906 0-.023438 0-.050782.003906-.074219 0-.074219 0-.152344 0-.226563 0-.03125-.003906-.066406-.003906-.097656 0-.039062 0-.078125 0-.117188-.003906-.035156-.003906-.066406-.003906-.097656-.003906-.039062-.003906-.078125-.007813-.117187 0-.035157-.003906-.074219-.007812-.109375-.003907-.058594-.007813-.117188-.011719-.175782-.003906-.039062-.007812-.082031-.011719-.125-.003906-.035156-.007812-.070312-.011719-.101562-.003906-.039062-.007812-.078125-.011718-.113281-.003906-.035157-.007813-.070313-.011719-.105469-.003906-.011719-.003906-.019531-.003906-.03125l12.9375-23.65625 47.683593 27.53125-32.742187 53.800781c-.039063-.003906-.074219-.011719-.113281-.015625-.023438-.003906-.046875-.007812-.070313-.011718-.074219-.007813-.148437-.019532-.222656-.027344-.074219-.011719-.148437-.015625-.222656-.023438-.019531-.003906-.035157-.003906-.054688-.007812-.058593-.003906-.117187-.007813-.175781-.011719-.019531 0-.039062-.003906-.058594-.003906-.058594-.003907-.121094-.007813-.179687-.011719-.015625 0-.03125 0-.046875 0-.074219-.003906-.144532-.007812-.21875-.007812 0 0-.003906 0-.007813 0-.160156-.003907-.316406-.003907-.476562 0-.003907 0-.007813 0-.011719 0-.074219.003906-.148438.003906-.226562.007812-.003907 0-.011719.003906-.019532.003906-.074218.003906-.148437.007813-.222656.011719-.003906 0-.007812.003906-.015625.003906-.316406.023438-.636719.0625-.953125.117188-.007812.003906-.011719.003906-.019531.003906-.070313.011719-.144531.027344-.222657.042969-.003906 0-.007812 0-.015624.003906-.316407.0625-.632813.140625-.945313.238281-.003906.003907-.011719.003907-.015625.003907-.074219.023437-.144531.046874-.21875.070312-.003906 0-.011719.003906-.019531.007812-.234375.078126-.464844.164063-.695313.261719-.003906.003907-.007812.003907-.011718.003907-.070313.03125-.140626.0625-.210938.09375-.011719.003906-.019531.007812-.03125.015624-.066406.027344-.128906.058594-.191406.089844-.011719.003906-.023438.011719-.035156.015625-.066407.03125-.136719.066407-.203126.101563-.003906.003906-.011718.003906-.015624.007812-.078126.039063-.152344.078125-.226563.121094-4.84375 2.648438-6.625 8.726562-3.972656 13.570312l3.4375 6.292969c.007812.011719.015625.023438.019531.039063l85.40625 156.15625c5.359375 9.792968 1.851562 22.304687-7.820312 27.886718zm85.480468-391.128906-78.441406 63.894532-29.699219-17.148438-25.589843-14.773438 16.109374-99.878906c.933594-5.773437 5.851563-10.066406 11.695313-10.210937 1.703125-.042969 3.40625-.050781 5.101563-.023438l-1.722657 13.296875c-.707031 5.480469 3.160157 10.492188 8.636719 11.203125.4375.054688.871094.082031 1.296875.082031 4.953125 0 9.253906-3.679687 9.90625-8.71875l1.796875-13.886718c9.320312 1.710937 18.332031 4.5 26.875 8.273437l-6.109375 10.578125c-2.761719 4.785156-1.121094 10.902344 3.660156 13.664063 1.578125.90625 3.296875 1.339843 4.992188 1.339843 3.457031 0 6.820312-1.792968 8.671875-5l6.34375-10.988281c9.367187 6.183594 17.882812 13.695313 25.277344 22.382813l-11.128907 8.496094c-4.390625 3.351562-5.230469 9.628906-1.878906 14.019531 1.96875 2.578125 4.945313 3.933593 7.957031 3.933593 2.117188 0 4.25-.671874 6.0625-2.054687l10.65625-8.136719c.871094 1.453125 1.714844 2.929688 2.53125 4.429688 2.792969 5.128906 1.535156 11.535156-3 15.226562zm0 0"/><path d="m238.175781 249.910156c-5.523437 0-10.003906 4.480469-10.003906 10.003906v.023438c0 5.523438 4.480469 9.988281 10.003906 9.988281 5.523438 0 10-4.488281 10-10.011719 0-5.523437-4.476562-10.003906-10-10.003906zm0 0"/></svg>