<svg height="512pt" viewBox="-76 0 512 512" width="512pt" xmlns="http://www.w3.org/2000/svg"><path d="m174.300781 456.328125h-147.28125l-16.09375 32.816406c-2.90625 5.929688 1.410157 12.855469 8.015625 12.855469h163.4375c6.605469 0 10.921875-6.925781 8.015625-12.855469zm0 0" fill="#fbb868"/><path d="m171.726562 397.03125h-141.933593l-2.773438 59.296875h147.28125l-10.117187-232.855469c0-.019531 0-.039062-.003906-.0625.003906.023438.003906.042969.003906.0625zm0 0" fill="#ffcc5a"/><path d="m61.910156 160.691406-9.796875 16.113282c-8.441406 13.878906-13.304687 29.632812-14.160156 45.847656.050781-.929688.117187-1.855469.191406-2.78125h125.808594c.082031 1.019531.15625 2.039062.207031 3.066406-.804687-16.386719-5.699218-32.3125-14.242187-46.324219l-9.722657-15.933593c-2.378906-3.902344-6.617187-6.28125-11.1875-6.28125h-55.902343c-4.574219 0-8.816407 2.386718-11.195313 6.292968zm0 0" fill="#ffcc5a"/><path d="m38.144531 219.871094c-.074219.925781-.140625 1.851562-.191406 2.78125-.007813.191406-.019531.382812-.027344.574218l-8.132812 173.804688h141.929687l-7.539062-173.558594c0-.023437-.003906-.042968-.003906-.0625-.007813-.15625-.015626-.316406-.023438-.472656-.050781-1.023438-.121094-2.046875-.203125-3.066406zm82.855469 115.496094c-11.179688 11.179687-29.304688 11.179687-40.480469 0-10.019531-10.019532-11.203125-25.859376-2.777343-37.257813l18.859374-25.507813c2.066407-2.796874 6.25-2.796874 8.316407 0l18.859375 25.507813c8.421875 11.394531 7.242187 27.238281-2.777344 37.257813zm0 0" fill="#00bdf2"/><path d="m258.207031 89.738281h-33.277343c-11.824219 0-21.410157-9.585937-21.410157-21.410156 0-32.210937-26.113281-58.328125-58.328125-58.328125s-58.328125 26.117188-58.328125 58.328125v28.320313l18.347657.460937h18.148437v-26.070313c0-11.804687 9.570313-21.375 21.375-21.375s21.375 9.570313 21.375 21.375v2.546876c0 27.453124 22.257813 49.710937 49.710937 49.710937h42.386719c9.269531 0 16.78125-7.511719 16.78125-16.777344 0-9.269531-7.515625-16.78125-16.78125-16.78125zm0 0" fill="#f451a3"/><path d="m82.351562 97.109375c-5.105468 0-9.246093 4.140625-9.246093 9.246094v48.042969h61.636719v-48.042969c0-5.105469-4.140626-9.246094-9.246094-9.246094zm0 0" fill="#fbb868"/><path d="m331.421875 88.773438h-8.320313c-10.210937 0-18.492187 8.277343-18.492187 18.492187 0 10.210937 8.28125 18.488281 18.492187 18.488281h8.320313c10.210937 0 18.492187-8.277344 18.492187-18.488281-.003906-10.214844-8.28125-18.492187-18.492187-18.492187zm0 0" fill="#f451a3"/><path d="m104.917969 272.601562c-2.066407-2.796874-6.25-2.796874-8.316407 0l-18.859374 25.507813c-8.421876 11.394531-7.242188 27.238281 2.777343 37.257813 11.179688 11.179687 29.300781 11.179687 40.480469 0 10.019531-10.019532 11.199219-25.859376 2.777344-37.257813zm0 0" fill="#e4e5e8"/><path d="m258.207031 79.738281h-33.277343c-6.289063 0-11.410157-5.117187-11.410157-11.410156 0-37.675781-30.652343-68.328125-68.328125-68.328125-37.679687 0-68.332031 30.652344-68.332031 68.328125v19.578125c-7.945313 2.371094-13.753906 9.742188-13.753906 18.449219v40.339843c-3.972657 1.914063-7.394531 4.945313-9.738281 8.800782l-9.796876 16.109375c-9.265624 15.238281-14.652343 32.675781-15.597656 50.476562-.015625.226563-.027344.453125-.035156.679688l-10.8125 231.027343-15.175781 30.953126c-2.894531 5.902343-2.546875 12.761718.929687 18.34375 3.480469 5.582031 9.484375 8.914062 16.0625 8.914062h163.4375c6.574219 0 12.582032-3.332031 16.058594-8.914062 3.480469-5.582032 3.828125-12.4375.933594-18.34375l-15.171875-30.9375-2.484375-57.195313c0-.003906 0-.007813 0-.011719l-6.675782-153.691406-.863281-19.867188c0-.003906 0-.007812 0-.007812-.011719-.222656-.019531-.445312-.03125-.675781-.898437-17.976563-6.316406-35.578125-15.691406-50.949219l-9.71875-15.933594c-1.109375-1.820312-2.457031-3.453125-3.992187-4.875v-44.242187c0-7.8125-4.679688-14.550781-11.382813-17.566407v-17.75c0-6.269531 5.101563-11.375 11.375-11.375s11.375 5.105469 11.375 11.375v2.546876c0 32.925781 26.789063 59.710937 59.714844 59.710937h42.382812c14.769531 0 26.78125-12.011719 26.78125-26.777344-.003906-14.765625-12.015625-26.78125-26.78125-26.78125zm-135.101562 27.828125c.550781.015625 1.097656-.015625 1.636719-.089844v36.921876h-41.636719v-37.289063h21.984375zm31.347656 122.304688 6.828125 157.160156h-14.324219c-5.523437 0-10 4.476562-10 10s4.476563 10 10 10h15.191407l1.707031 39.296875h-126.359375l1.839844-39.296875h27.621093c5.523438 0 10-4.476562 10-10s-4.476562-10-10-10h-26.6875l5.699219-121.808594 1.65625-35.351562zm-133.789063 262.128906 12.585938-25.671875h134.816406l12.589844 25.671875zm131.777344-282.128906h-102.773437c2.046875-9.820313 5.761719-19.273438 10.988281-27.871094l9.796875-16.109375c.5625-.921875 1.578125-1.492187 2.652344-1.492187h55.902343c1.074219 0 2.089844.570312 2.648438 1.488281l9.71875 15.933593c5.277344 8.648438 9.015625 18.164063 11.066406 28.050782zm105.765625-96.574219h-42.386719c-21.898437 0-39.710937-17.816406-39.710937-39.710937v-2.546876c0-17.300781-14.078125-31.375-31.375-31.375-17.300781 0-31.375 14.074219-31.375 31.375v16.070313h-8.027344l-8.472656-.214844v-18.566406c0-26.648437 21.683594-48.328125 48.332031-48.328125 26.648438 0 48.328125 21.679688 48.328125 48.328125 0 17.320313 14.089844 31.410156 31.410157 31.410156h33.277343c3.738281 0 6.777344 3.042969 6.777344 6.78125s-3.039063 6.777344-6.777344 6.777344zm0 0"/><path d="m331.421875 78.773438h-8.320313c-15.710937 0-28.492187 12.78125-28.492187 28.488281 0 15.710937 12.78125 28.492187 28.492187 28.492187h8.320313c15.710937 0 28.492187-12.78125 28.492187-28.492187-.003906-15.707031-12.78125-28.488281-28.492187-28.488281zm0 36.980468h-8.320313c-4.683593 0-8.492187-3.808594-8.492187-8.492187 0-4.679688 3.808594-8.488281 8.492187-8.488281h8.320313c4.683594 0 8.492187 3.808593 8.492187 8.488281 0 4.683593-3.8125 8.492187-8.492187 8.492187zm0 0"/><path d="m73.445312 342.4375c7.53125 7.53125 17.421876 11.296875 27.3125 11.296875 9.890626 0 19.78125-3.765625 27.3125-11.296875 13.628907-13.628906 15.207032-34.769531 3.746094-50.269531l-18.859375-25.511719c-2.847656-3.855469-7.40625-6.152344-12.199219-6.152344-4.792968 0-9.351562 2.300782-12.199218 6.152344l-18.859375 25.511719c-11.457031 15.5-9.882813 36.640625 3.746093 50.269531zm12.335938-38.382812 14.976562-20.257813 14.976563 20.257813c5.523437 7.476562 4.765625 17.667968-1.804687 24.242187-3.519532 3.519531-8.195313 5.457031-13.171876 5.457031-4.972656 0-9.652343-1.9375-13.167968-5.457031-6.574219-6.570313-7.332032-16.765625-1.808594-24.242187zm0 0"/><path d="m106.984375 387.03125h-.027344c-5.523437 0-9.988281 4.476562-9.988281 10s4.492188 10 10.015625 10c5.519531 0 10-4.476562 10-10s-4.480469-10-10-10zm0 0"/></svg>